<svg width="540" height="540" viewBox="0 0 540 540" fill="none" xmlns="http://www.w3.org/2000/svg">
<circle cx="100" cy="153" r="99.5" stroke="#3F3D56"/>
<circle cx="99.5" cy="153.5" r="92.5" fill="#3F3D56"/>
<circle cx="453" cy="382" r="75.5" stroke="#EA654D"/>
<circle cx="456.62" cy="385.38" r="70.3" fill="#FE6D53"/>
<g filter="url(#filter0_diiii)">
<rect x="40" y="130" width="460" height="280" rx="16" fill="white"/>
<rect x="42" y="132" width="456" height="276" rx="14" stroke="white" stroke-width="4"/>
</g>
<g clip-path="url(#clip0)">
<path opacity="0.1" d="M200.5 184.591H176.085C174.677 184.591 173.535 185.732 173.535 187.14V190.961C173.535 192.368 174.677 193.509 176.085 193.509H200.5C201.908 193.509 203.05 192.368 203.05 190.961V187.14C203.05 185.732 201.908 184.591 200.5 184.591Z" fill="#FE6D53"/>
<path opacity="0.1" d="M231.387 193.509H206.972C205.564 193.509 204.422 194.65 204.422 196.058V199.879C204.422 201.286 205.564 202.427 206.972 202.427H231.387C232.795 202.427 233.937 201.286 233.937 199.879V196.058C233.937 194.65 232.795 193.509 231.387 193.509Z" fill="#FE6D53"/>
<path opacity="0.1" d="M262.277 202.427H237.862C236.454 202.427 235.312 203.568 235.312 204.976V208.797C235.312 210.205 236.454 211.346 237.862 211.346H262.277C263.686 211.346 264.827 210.205 264.827 208.797V204.976C264.827 203.568 263.686 202.427 262.277 202.427Z" fill="#FE6D53"/>
<path opacity="0.1" d="M200.5 171.214H176.085C174.677 171.214 173.535 172.355 173.535 173.762V177.583C173.535 178.991 174.677 180.132 176.085 180.132H200.5C201.908 180.132 203.05 178.991 203.05 177.583V173.762C203.05 172.355 201.908 171.214 200.5 171.214Z" fill="#FE6D53"/>
<path opacity="0.1" d="M231.387 180.132H206.972C205.564 180.132 204.422 181.273 204.422 182.68V186.502C204.422 187.909 205.564 189.05 206.972 189.05H231.387C232.795 189.05 233.937 187.909 233.937 186.502V182.68C233.937 181.273 232.795 180.132 231.387 180.132Z" fill="#FE6D53"/>
<path opacity="0.1" d="M262.277 189.05H237.862C236.454 189.05 235.312 190.191 235.312 191.599V195.42C235.312 196.827 236.454 197.968 237.862 197.968H262.277C263.686 197.968 264.827 196.827 264.827 195.42V191.599C264.827 190.191 263.686 189.05 262.277 189.05Z" fill="#FE6D53"/>
<path opacity="0.1" d="M296.594 184.591H272.179C270.771 184.591 269.629 185.732 269.629 187.14V190.961C269.629 192.368 270.771 193.509 272.179 193.509H296.594C298.002 193.509 299.144 192.368 299.144 190.961V187.14C299.144 185.732 298.002 184.591 296.594 184.591Z" fill="#FE6D53"/>
<path opacity="0.1" d="M327.484 193.509H303.069C301.661 193.509 300.52 194.65 300.52 196.058V199.879C300.52 201.286 301.661 202.427 303.069 202.427H327.484C328.893 202.427 330.034 201.286 330.034 199.879V196.058C330.034 194.65 328.893 193.509 327.484 193.509Z" fill="#FE6D53"/>
<path opacity="0.1" d="M358.371 202.427H333.956C332.548 202.427 331.406 203.568 331.406 204.976V208.797C331.406 210.205 332.548 211.346 333.956 211.346H358.371C359.779 211.346 360.921 210.205 360.921 208.797V204.976C360.921 203.568 359.779 202.427 358.371 202.427Z" fill="#FE6D53"/>
<path opacity="0.1" d="M296.594 171.214H272.179C270.771 171.214 269.629 172.355 269.629 173.762V177.583C269.629 178.991 270.771 180.132 272.179 180.132H296.594C298.002 180.132 299.144 178.991 299.144 177.583V173.762C299.144 172.355 298.002 171.214 296.594 171.214Z" fill="#FE6D53"/>
<path opacity="0.1" d="M327.484 180.132H303.069C301.661 180.132 300.52 181.273 300.52 182.68V186.502C300.52 187.909 301.661 189.05 303.069 189.05H327.484C328.893 189.05 330.034 187.909 330.034 186.502V182.68C330.034 181.273 328.893 180.132 327.484 180.132Z" fill="#FE6D53"/>
<path opacity="0.1" d="M358.371 189.05H333.956C332.548 189.05 331.406 190.191 331.406 191.599V195.42C331.406 196.827 332.548 197.968 333.956 197.968H358.371C359.779 197.968 360.921 196.827 360.921 195.42V191.599C360.921 190.191 359.779 189.05 358.371 189.05Z" fill="#FE6D53"/>
<path opacity="0.1" d="M200.5 153.377H176.085C174.677 153.377 173.535 154.518 173.535 155.926V159.747C173.535 161.155 174.677 162.296 176.085 162.296H200.5C201.908 162.296 203.05 161.155 203.05 159.747V155.926C203.05 154.518 201.908 153.377 200.5 153.377Z" fill="#FE6D53"/>
<path opacity="0.1" d="M231.387 162.295H206.972C205.564 162.295 204.422 163.436 204.422 164.844V168.665C204.422 170.073 205.564 171.214 206.972 171.214H231.387C232.795 171.214 233.937 170.073 233.937 168.665V164.844C233.937 163.436 232.795 162.295 231.387 162.295Z" fill="#FE6D53"/>
<path opacity="0.1" d="M262.277 171.214H237.862C236.454 171.214 235.312 172.355 235.312 173.762V177.583C235.312 178.991 236.454 180.132 237.862 180.132H262.277C263.686 180.132 264.827 178.991 264.827 177.583V173.762C264.827 172.355 263.686 171.214 262.277 171.214Z" fill="#FE6D53"/>
<path opacity="0.1" d="M200.5 140H176.085C174.677 140 173.535 141.141 173.535 142.549V146.37C173.535 147.777 174.677 148.918 176.085 148.918H200.5C201.908 148.918 203.05 147.777 203.05 146.37V142.549C203.05 141.141 201.908 140 200.5 140Z" fill="#FE6D53"/>
<path opacity="0.1" d="M231.387 148.918H206.972C205.564 148.918 204.422 150.059 204.422 151.467V155.288C204.422 156.695 205.564 157.836 206.972 157.836H231.387C232.795 157.836 233.937 156.695 233.937 155.288V151.467C233.937 150.059 232.795 148.918 231.387 148.918Z" fill="#FE6D53"/>
<path opacity="0.1" d="M262.277 157.836H237.862C236.454 157.836 235.312 158.977 235.312 160.385V164.206C235.312 165.614 236.454 166.755 237.862 166.755H262.277C263.686 166.755 264.827 165.614 264.827 164.206V160.385C264.827 158.977 263.686 157.836 262.277 157.836Z" fill="#FE6D53"/>
<path opacity="0.1" d="M296.594 153.377H272.179C270.771 153.377 269.629 154.518 269.629 155.926V159.747C269.629 161.155 270.771 162.296 272.179 162.296H296.594C298.002 162.296 299.144 161.155 299.144 159.747V155.926C299.144 154.518 298.002 153.377 296.594 153.377Z" fill="#FE6D53"/>
<path opacity="0.1" d="M327.484 162.295H303.069C301.661 162.295 300.52 163.436 300.52 164.844V168.665C300.52 170.073 301.661 171.214 303.069 171.214H327.484C328.893 171.214 330.034 170.073 330.034 168.665V164.844C330.034 163.436 328.893 162.295 327.484 162.295Z" fill="#FE6D53"/>
<path opacity="0.1" d="M358.371 171.214H333.956C332.548 171.214 331.406 172.355 331.406 173.762V177.583C331.406 178.991 332.548 180.132 333.956 180.132H358.371C359.779 180.132 360.921 178.991 360.921 177.583V173.762C360.921 172.355 359.779 171.214 358.371 171.214Z" fill="#FE6D53"/>
<path opacity="0.1" d="M296.594 140H272.179C270.771 140 269.629 141.141 269.629 142.549V146.37C269.629 147.777 270.771 148.918 272.179 148.918H296.594C298.002 148.918 299.144 147.777 299.144 146.37V142.549C299.144 141.141 298.002 140 296.594 140Z" fill="#FE6D53"/>
<path opacity="0.1" d="M327.484 148.918H303.069C301.661 148.918 300.52 150.059 300.52 151.467V155.288C300.52 156.695 301.661 157.836 303.069 157.836H327.484C328.893 157.836 330.034 156.695 330.034 155.288V151.467C330.034 150.059 328.893 148.918 327.484 148.918Z" fill="#FE6D53"/>
<path opacity="0.1" d="M358.371 157.836H333.956C332.548 157.836 331.406 158.977 331.406 160.385V164.206C331.406 165.614 332.548 166.755 333.956 166.755H358.371C359.779 166.755 360.921 165.614 360.921 164.206V160.385C360.921 158.977 359.779 157.836 358.371 157.836Z" fill="#FE6D53"/>
<path opacity="0.1" d="M200.5 343.404H176.085C174.677 343.404 173.535 344.545 173.535 345.952V349.773C173.535 351.181 174.677 352.322 176.085 352.322H200.5C201.908 352.322 203.05 351.181 203.05 349.773V345.952C203.05 344.545 201.908 343.404 200.5 343.404Z" fill="#FE6D53"/>
<path opacity="0.1" d="M231.387 352.322H206.972C205.564 352.322 204.422 353.463 204.422 354.87V358.692C204.422 360.099 205.564 361.24 206.972 361.24H231.387C232.795 361.24 233.937 360.099 233.937 358.692V354.87C233.937 353.463 232.795 352.322 231.387 352.322Z" fill="#FE6D53"/>
<path opacity="0.1" d="M262.277 361.24H237.862C236.454 361.24 235.312 362.381 235.312 363.789V367.61C235.312 369.017 236.454 370.158 237.862 370.158H262.277C263.686 370.158 264.827 369.017 264.827 367.61V363.789C264.827 362.381 263.686 361.24 262.277 361.24Z" fill="#FE6D53"/>
<path opacity="0.1" d="M200.5 330.026H176.085C174.677 330.026 173.535 331.167 173.535 332.575V336.396C173.535 337.804 174.677 338.945 176.085 338.945H200.5C201.908 338.945 203.05 337.804 203.05 336.396V332.575C203.05 331.167 201.908 330.026 200.5 330.026Z" fill="#FE6D53"/>
<path opacity="0.1" d="M231.387 338.945H206.972C205.564 338.945 204.422 340.086 204.422 341.493V345.314C204.422 346.722 205.564 347.863 206.972 347.863H231.387C232.795 347.863 233.937 346.722 233.937 345.314V341.493C233.937 340.086 232.795 338.945 231.387 338.945Z" fill="#FE6D53"/>
<path opacity="0.1" d="M262.277 347.863H237.862C236.454 347.863 235.312 349.004 235.312 350.411V354.233C235.312 355.64 236.454 356.781 237.862 356.781H262.277C263.686 356.781 264.827 355.64 264.827 354.233V350.411C264.827 349.004 263.686 347.863 262.277 347.863Z" fill="#FE6D53"/>
<path opacity="0.1" d="M296.594 343.404H272.179C270.771 343.404 269.629 344.545 269.629 345.952V349.773C269.629 351.181 270.771 352.322 272.179 352.322H296.594C298.002 352.322 299.144 351.181 299.144 349.773V345.952C299.144 344.545 298.002 343.404 296.594 343.404Z" fill="#FE6D53"/>
<path opacity="0.1" d="M327.484 352.322H303.069C301.661 352.322 300.52 353.463 300.52 354.87V358.692C300.52 360.099 301.661 361.24 303.069 361.24H327.484C328.893 361.24 330.034 360.099 330.034 358.692V354.87C330.034 353.463 328.893 352.322 327.484 352.322Z" fill="#FE6D53"/>
<path opacity="0.1" d="M358.371 361.24H333.956C332.548 361.24 331.406 362.381 331.406 363.789V367.61C331.406 369.017 332.548 370.158 333.956 370.158H358.371C359.779 370.158 360.921 369.017 360.921 367.61V363.789C360.921 362.381 359.779 361.24 358.371 361.24Z" fill="#FE6D53"/>
<path opacity="0.1" d="M296.594 330.026H272.179C270.771 330.026 269.629 331.167 269.629 332.575V336.396C269.629 337.804 270.771 338.945 272.179 338.945H296.594C298.002 338.945 299.144 337.804 299.144 336.396V332.575C299.144 331.167 298.002 330.026 296.594 330.026Z" fill="#FE6D53"/>
<path opacity="0.1" d="M327.484 338.945H303.069C301.661 338.945 300.52 340.086 300.52 341.493V345.314C300.52 346.722 301.661 347.863 303.069 347.863H327.484C328.893 347.863 330.034 346.722 330.034 345.314V341.493C330.034 340.086 328.893 338.945 327.484 338.945Z" fill="#FE6D53"/>
<path opacity="0.1" d="M358.371 347.863H333.956C332.548 347.863 331.406 349.004 331.406 350.411V354.233C331.406 355.64 332.548 356.781 333.956 356.781H358.371C359.779 356.781 360.921 355.64 360.921 354.233V350.411C360.921 349.004 359.779 347.863 358.371 347.863Z" fill="#FE6D53"/>
<path opacity="0.1" d="M200.5 312.19H176.085C174.677 312.19 173.535 313.331 173.535 314.738V318.56C173.535 319.967 174.677 321.108 176.085 321.108H200.5C201.908 321.108 203.05 319.967 203.05 318.56V314.738C203.05 313.331 201.908 312.19 200.5 312.19Z" fill="#FE6D53"/>
<path opacity="0.1" d="M231.387 321.108H206.972C205.564 321.108 204.422 322.249 204.422 323.657V327.478C204.422 328.885 205.564 330.026 206.972 330.026H231.387C232.795 330.026 233.937 328.885 233.937 327.478V323.657C233.937 322.249 232.795 321.108 231.387 321.108Z" fill="#FE6D53"/>
<path opacity="0.1" d="M262.277 330.026H237.862C236.454 330.026 235.312 331.167 235.312 332.575V336.396C235.312 337.804 236.454 338.945 237.862 338.945H262.277C263.686 338.945 264.827 337.804 264.827 336.396V332.575C264.827 331.167 263.686 330.026 262.277 330.026Z" fill="#FE6D53"/>
<path opacity="0.1" d="M200.5 298.813H176.085C174.677 298.813 173.535 299.954 173.535 301.361V305.182C173.535 306.59 174.677 307.731 176.085 307.731H200.5C201.908 307.731 203.05 306.59 203.05 305.182V301.361C203.05 299.954 201.908 298.813 200.5 298.813Z" fill="#FE6D53"/>
<path opacity="0.1" d="M231.387 307.731H206.972C205.564 307.731 204.422 308.872 204.422 310.279V314.101C204.422 315.508 205.564 316.649 206.972 316.649H231.387C232.795 316.649 233.937 315.508 233.937 314.101V310.279C233.937 308.872 232.795 307.731 231.387 307.731Z" fill="#FE6D53"/>
<path opacity="0.1" d="M262.277 316.649H237.862C236.454 316.649 235.312 317.79 235.312 319.198V323.019C235.312 324.426 236.454 325.567 237.862 325.567H262.277C263.686 325.567 264.827 324.426 264.827 323.019V319.198C264.827 317.79 263.686 316.649 262.277 316.649Z" fill="#FE6D53"/>
<path opacity="0.1" d="M296.594 312.19H272.179C270.771 312.19 269.629 313.331 269.629 314.738V318.56C269.629 319.967 270.771 321.108 272.179 321.108H296.594C298.002 321.108 299.144 319.967 299.144 318.56V314.738C299.144 313.331 298.002 312.19 296.594 312.19Z" fill="#FE6D53"/>
<path opacity="0.1" d="M327.484 321.108H303.069C301.661 321.108 300.52 322.249 300.52 323.657V327.478C300.52 328.885 301.661 330.026 303.069 330.026H327.484C328.893 330.026 330.034 328.885 330.034 327.478V323.657C330.034 322.249 328.893 321.108 327.484 321.108Z" fill="#FE6D53"/>
<path opacity="0.1" d="M358.371 330.026H333.956C332.548 330.026 331.406 331.167 331.406 332.575V336.396C331.406 337.804 332.548 338.945 333.956 338.945H358.371C359.779 338.945 360.921 337.804 360.921 336.396V332.575C360.921 331.167 359.779 330.026 358.371 330.026Z" fill="#FE6D53"/>
<path opacity="0.1" d="M296.594 298.813H272.179C270.771 298.813 269.629 299.954 269.629 301.361V305.182C269.629 306.59 270.771 307.731 272.179 307.731H296.594C298.002 307.731 299.144 306.59 299.144 305.182V301.361C299.144 299.954 298.002 298.813 296.594 298.813Z" fill="#FE6D53"/>
<path opacity="0.1" d="M327.484 307.731H303.069C301.661 307.731 300.52 308.872 300.52 310.279V314.101C300.52 315.508 301.661 316.649 303.069 316.649H327.484C328.893 316.649 330.034 315.508 330.034 314.101V310.279C330.034 308.872 328.893 307.731 327.484 307.731Z" fill="#FE6D53"/>
<path opacity="0.1" d="M358.371 316.649H333.956C332.548 316.649 331.406 317.79 331.406 319.198V323.019C331.406 324.426 332.548 325.567 333.956 325.567H358.371C359.779 325.567 360.921 324.426 360.921 323.019V319.198C360.921 317.79 359.779 316.649 358.371 316.649Z" fill="#FE6D53"/>
<path opacity="0.1" d="M272.546 400C355.66 400 423.038 394.471 423.038 387.652C423.038 380.832 355.66 375.303 272.546 375.303C189.432 375.303 122.055 380.832 122.055 387.652C122.055 394.471 189.432 400 272.546 400Z" fill="#FE6D53"/>
<path d="M136.052 204.074C150.243 210.221 158.397 222.939 158.397 222.939C158.397 222.939 143.54 225.683 129.345 219.54C115.151 213.397 107 200.675 107 200.675C107 200.675 121.857 197.927 136.052 204.074Z" fill="#FE6D53"/>
<path d="M179.602 180.475C183.991 173.272 191.466 169.842 191.466 169.842C191.466 169.842 191.809 178.053 187.433 185.236C183.058 192.419 175.566 195.845 175.566 195.845C175.566 195.845 175.209 187.637 179.602 180.475Z" fill="#FE6D53"/>
<path d="M147.335 188.182C150.475 199.385 159.13 206.76 159.13 206.76C159.13 206.76 162.696 195.965 159.556 184.759C156.416 173.553 147.757 166.182 147.757 166.182C147.757 166.182 144.191 176.976 147.335 188.182Z" fill="#46455B"/>
<path d="M395.512 187.678H150.271C148.905 187.678 147.797 188.785 147.797 190.151V310.403C147.797 311.769 148.905 312.876 150.271 312.876H395.512C396.879 312.876 397.987 311.769 397.987 310.403V190.151C397.987 188.785 396.879 187.678 395.512 187.678Z" fill="#3F3D56"/>
<path opacity="0.1" d="M147.797 305.33H397.987V310.403C397.987 311.059 397.726 311.688 397.262 312.152C396.798 312.615 396.169 312.876 395.512 312.876H150.271C149.615 312.876 148.986 312.615 148.522 312.152C148.058 311.688 147.797 311.059 147.797 310.403V305.33Z" fill="black"/>
<path d="M189.839 296.069H173.022C172.548 296.069 172.164 296.453 172.164 296.926V304.472C172.164 304.946 172.548 305.33 173.022 305.33H189.839C190.313 305.33 190.697 304.946 190.697 304.472V296.926C190.697 296.453 190.313 296.069 189.839 296.069Z" fill="#FE6D53"/>
<path d="M207.856 303.958H196.53C196.151 303.958 195.844 304.265 195.844 304.644C195.844 305.023 196.151 305.33 196.53 305.33H207.856C208.235 305.33 208.542 305.023 208.542 304.644C208.542 304.265 208.235 303.958 207.856 303.958Z" fill="#FE6D53"/>
<path d="M184.571 212.162C193.628 213.832 202.867 212.162 211.886 211.03L239.297 207.6C240.406 207.459 242.019 206.797 242.671 208.152C243.038 208.91 242.791 210.553 242.818 211.425C242.89 213.826 242.884 216.227 242.818 218.628C242.695 223.217 242.358 227.796 241.929 232.365C241.095 241.307 239.915 250.202 239.325 259.178C239.023 263.747 238.872 268.33 239.005 272.898C239.036 273.989 239.081 275.08 239.146 276.167C239.218 277.385 239.764 279.193 238.436 280.006C237.677 280.472 236.184 280.448 235.316 280.585C233.943 280.801 232.57 280.973 231.17 281.113C221.942 282.036 212.593 281.652 203.33 281.597L175.36 281.453L168.537 281.415C167.919 281.415 165.692 281.786 165.311 281.052C165.15 280.74 165.579 279.278 165.654 278.887C165.759 278.243 165.874 277.599 165.997 276.956C166.794 272.446 167.734 267.963 168.681 263.483C170.716 253.879 172.799 244.226 173.637 234.416C174.052 229.494 173.778 224.527 174.286 219.616C174.522 217.335 174.804 212.244 177.841 212.042C180.415 211.87 183.064 212.042 185.645 212.042C185.782 212.042 185.913 211.988 186.009 211.891C186.106 211.795 186.16 211.664 186.16 211.527C186.16 211.391 186.106 211.26 186.009 211.164C185.913 211.067 185.782 211.013 185.645 211.013C183.209 211.013 180.768 210.948 178.332 210.996C176.712 211.027 175.586 211.411 174.814 212.9C172.841 216.721 173.043 221.818 172.981 225.989C172.834 235.974 171.3 245.746 169.302 255.511C168.297 260.427 167.212 265.325 166.214 270.244C165.743 272.593 165.294 274.95 164.882 277.313C164.69 278.438 163.719 280.918 164.573 281.95C165.428 282.983 168.056 282.427 169.234 282.434L177.422 282.482L193.113 282.571C203.251 282.63 213.424 282.914 223.558 282.616C228.397 282.472 233.511 282.273 238.223 281.117C239.627 280.774 240.303 280.129 240.358 278.634C240.44 276.315 240.062 273.924 240.014 271.595C239.671 251.666 244.356 232.015 243.875 212.08C243.844 210.725 244.356 207.308 242.873 206.489C242.207 206.118 241.343 206.321 240.642 206.403C239.304 206.557 237.969 206.746 236.63 206.904L219.248 209.072C213.691 209.758 208.138 210.498 202.572 211.13C196.679 211.816 190.728 212.224 184.856 211.13C184.207 211.01 183.929 212.001 184.581 212.121L184.571 212.162Z" fill="#FE6D53"/>
<path d="M173.644 224.287L242.221 220.926C242.884 220.892 242.887 219.863 242.221 219.897L173.644 223.258C172.985 223.289 172.982 224.318 173.644 224.287Z" fill="#FE6D53"/>
<path d="M194.769 215.805C194.577 216.008 194.438 216.255 194.363 216.524C194.288 216.793 194.281 217.076 194.341 217.349C194.4 217.622 194.526 217.876 194.707 218.089C194.887 218.303 195.117 218.468 195.376 218.573C196.299 218.995 197.384 218.641 198.3 218.412C199.673 218.069 201.046 217.763 202.456 217.513C205.526 216.97 208.636 216.681 211.753 216.648C213.174 216.631 214.585 216.696 216.006 216.758C217.035 216.799 218.144 216.882 219.015 216.244C220.011 215.517 220.333 214.096 219.359 213.212C217.986 211.96 215.028 212.687 213.442 212.817C207.689 213.295 201.973 214.147 196.33 215.369C195.685 215.506 195.956 216.501 196.605 216.36C200.327 215.558 204.078 214.913 207.858 214.426C209.716 214.197 211.577 214.004 213.442 213.846C214.321 213.774 215.199 213.709 216.078 213.657C216.421 213.637 216.785 213.599 217.135 213.609C218.223 213.633 218.35 213.438 217.698 214.752C217.118 215.914 217.303 215.781 216.297 215.743C215.872 215.743 215.446 215.695 215.021 215.674C214.149 215.638 213.277 215.618 212.406 215.616C210.55 215.616 208.699 215.705 206.853 215.884C205.288 216.034 203.726 216.247 202.178 216.522C201.21 216.693 200.25 216.892 199.292 217.112C198.87 217.211 198.444 217.314 198.022 217.42C197.82 217.475 197.614 217.523 197.411 217.575C196.661 217.835 196.021 217.492 195.493 216.546C195.953 216.069 195.229 215.338 194.765 215.818L194.769 215.805Z" fill="#FE6D53"/>
<path d="M207.201 230.444C202.235 230.252 196.871 231.593 193.6 235.589C191.04 238.714 189.581 244.075 192.293 247.595C195.206 251.368 201.597 250.702 205.451 249.094C209.528 247.379 213.99 243.842 215.215 239.417C216.742 233.892 211.783 229.714 206.618 229.652C205.955 229.652 205.955 230.681 206.618 230.681C209.562 230.715 212.452 231.978 213.825 234.718C215.263 237.606 214.024 240.639 212.109 242.95C209.041 246.631 204.243 249.406 199.356 249.327C196.421 249.282 193.178 248.277 192.269 245.183C191.521 242.676 192.09 239.935 193.394 237.713C196.215 232.911 201.957 231.285 207.222 231.491C207.884 231.515 207.884 230.485 207.222 230.461L207.201 230.444Z" fill="#FE6D53"/>
<path d="M202.268 238.066C202.057 237.987 201.828 237.964 201.605 237.997C201.382 238.031 201.171 238.12 200.991 238.257C200.812 238.394 200.67 238.574 200.579 238.78C200.488 238.987 200.45 239.213 200.47 239.438C200.573 240.776 202.049 241.153 203.157 241.074C204.115 240.992 205.234 240.638 204.897 239.441C204.835 239.229 204.729 239.033 204.584 238.866C204.44 238.7 204.261 238.566 204.06 238.474C203.753 238.352 203.42 238.311 203.092 238.354C202.965 238.354 201.802 238.779 202.296 238.268L201.486 238.162C201.576 238.251 201.645 238.358 201.687 238.477C201.73 238.596 201.746 238.722 201.733 238.848C201.735 238.938 201.759 239.025 201.805 239.102C201.851 239.18 201.916 239.244 201.993 239.288C202.071 239.333 202.159 239.357 202.249 239.357C202.339 239.357 202.427 239.334 202.505 239.29C202.623 239.241 202.752 239.226 202.878 239.246C203.004 239.266 203.122 239.321 203.219 239.404C203.315 239.487 203.387 239.596 203.425 239.718C203.463 239.839 203.467 239.969 203.435 240.093C203.408 240.212 203.423 240.337 203.478 240.445C203.534 240.554 203.626 240.64 203.738 240.687C203.85 240.735 203.976 240.741 204.093 240.705C204.209 240.669 204.309 240.593 204.376 240.491C204.719 239.874 205.134 238.646 204.619 238.001C204.276 237.565 203.614 237.695 203.202 237.949C202.948 238.129 202.711 238.332 202.495 238.556C202.08 238.923 201.808 239.095 201.963 238.392C202.22 237.112 203.442 236.094 204.557 235.583L203.802 235.003C203.407 236.49 202.699 237.875 201.726 239.067L202.605 239.431C202.58 238.96 202.701 238.493 202.951 238.093C203.202 237.694 203.57 237.381 204.005 237.198H203.5L203.768 237.637C203.669 238.285 204.66 238.563 204.76 237.908C204.89 237.061 204.355 235.96 203.363 236.375C202.179 236.869 201.565 238.224 201.589 239.431C201.589 239.843 202.172 240.162 202.471 239.798C203.562 238.473 204.359 236.931 204.808 235.274C204.832 235.176 204.827 235.072 204.793 234.977C204.759 234.882 204.698 234.798 204.618 234.737C204.538 234.675 204.441 234.639 204.34 234.631C204.239 234.623 204.138 234.645 204.05 234.694C203.021 235.159 202.153 235.915 201.551 236.869C201.132 237.555 200.607 238.625 201.033 239.414C201.103 239.54 201.197 239.651 201.31 239.741C201.423 239.831 201.552 239.897 201.691 239.936C201.83 239.975 201.975 239.987 202.119 239.969C202.262 239.952 202.4 239.907 202.526 239.836C202.843 239.648 203.133 239.417 203.387 239.15C203.514 239.037 203.655 238.841 203.823 238.807C203.974 238.704 203.967 238.762 203.799 238.989C203.797 239.344 203.693 239.691 203.5 239.99L204.441 240.385C204.526 240.064 204.516 239.726 204.412 239.412C204.309 239.097 204.117 238.819 203.859 238.611C203.601 238.403 203.288 238.274 202.958 238.24C202.628 238.206 202.296 238.268 202.001 238.419L202.776 238.865C202.793 238.429 202.655 238 202.388 237.654C202.348 237.588 202.293 237.531 202.228 237.488C202.162 237.445 202.088 237.418 202.011 237.408C201.933 237.398 201.855 237.405 201.78 237.429C201.706 237.453 201.638 237.494 201.582 237.548C201.06 238.093 200.961 239.037 201.616 239.541C202.107 239.915 202.347 239.541 202.886 239.455C204.715 239.218 203.648 240.042 203.003 240.069C202.714 240.1 202.423 240.079 202.141 240.007C201.425 239.765 201.381 239.453 202.008 239.071C202.622 239.321 202.886 238.327 202.282 238.08L202.268 238.066Z" fill="#FE6D53"/>
<path d="M201.439 239.946C201.861 241.318 200.118 241.77 199.29 242.244C198.71 242.569 198.204 243.012 197.804 243.544C196.94 244.703 196.617 246.178 196.332 247.567C196.202 248.216 197.194 248.49 197.327 247.842C197.484 246.821 197.776 245.826 198.196 244.882C198.813 243.654 199.699 243.242 200.852 242.611C202.005 241.98 202.839 241.002 202.431 239.671C202.238 239.04 201.243 239.311 201.439 239.946Z" fill="#FE6D53"/>
<path d="M203.157 239.256C202.911 239.29 202.687 239.414 202.528 239.605C202.37 239.795 202.288 240.038 202.299 240.285C202.299 240.693 202.57 240.954 202.755 241.28C203.195 241.947 203.531 242.676 203.75 243.444C203.915 244.182 204.076 245.502 203.692 246.188C202.982 247.461 201.698 247.217 200.603 247.217C199.574 247.217 198.777 247.56 198.812 246.127C198.832 245.321 199.395 244.504 199.841 243.87L198.901 243.746C199.099 244.793 199.204 245.856 199.213 246.922C199.213 247.399 199.944 247.663 200.171 247.18C200.723 246.02 201.16 244.809 201.478 243.564L200.466 243.427L200.644 246.034C200.647 246.145 200.686 246.253 200.755 246.34C200.824 246.428 200.919 246.491 201.026 246.52C201.134 246.549 201.248 246.543 201.351 246.503C201.455 246.462 201.543 246.389 201.602 246.295C201.722 246.162 201.81 246.004 201.859 245.832C201.894 245.67 201.578 244.583 201.451 244.971L202.46 245.108L202.532 242.631L201.502 242.769C201.72 243.467 201.786 244.204 201.695 244.93C201.629 245.502 202.594 245.633 202.724 245.067L203.369 241.74L202.429 241.86C202.653 242.32 202.714 242.842 202.604 243.341C202.529 244 203.558 243.993 203.634 243.341C203.721 242.658 203.612 241.965 203.318 241.342C203.266 241.256 203.19 241.187 203.099 241.143C203.008 241.1 202.907 241.084 202.807 241.097C202.708 241.11 202.614 241.152 202.538 241.217C202.461 241.283 202.406 241.369 202.378 241.465L201.729 244.792L202.741 244.93C202.844 244.112 202.766 243.282 202.511 242.498C202.477 242.379 202.401 242.278 202.298 242.21C202.195 242.143 202.071 242.115 201.949 242.131C201.827 242.147 201.715 242.207 201.633 242.299C201.551 242.39 201.505 242.508 201.502 242.631L201.43 245.108C201.43 245.708 202.264 245.794 202.443 245.245L202.498 245.077C202.521 244.989 202.522 244.897 202.499 244.809C202.476 244.721 202.431 244.641 202.367 244.576C201.3 243.417 201.084 245.262 200.713 245.773L201.674 246.034L201.496 243.427C201.458 242.871 200.634 242.7 200.483 243.29C200.193 244.45 199.791 245.579 199.282 246.662L200.243 246.922C200.232 245.764 200.117 244.609 199.9 243.472C199.81 242.998 199.189 243.019 198.959 243.348C198.273 244.336 197.086 246.494 198.002 247.677C198.801 248.706 201.317 248.308 202.391 248.243C204.087 248.147 204.701 247.073 204.886 245.475C204.975 244.709 204.932 243.935 204.759 243.184C204.667 242.779 203.73 240.213 203.448 240.265C204.1 240.145 203.822 239.15 203.174 239.27L203.157 239.256Z" fill="#FE6D53"/>
<path d="M201.161 241.568L198.351 245.276L199.239 245.794L201.299 242.817L200.358 242.419L199.332 246.332C199.304 246.451 199.32 246.576 199.375 246.685C199.43 246.793 199.522 246.879 199.635 246.927C199.747 246.974 199.873 246.981 199.989 246.945C200.106 246.909 200.206 246.833 200.272 246.73C200.739 245.957 201.264 245.22 201.841 244.525L200.983 244.024C200.752 244.91 200.308 245.726 199.689 246.401L200.55 246.902C200.603 246.428 200.729 245.965 200.925 245.53C201.189 244.936 200.351 244.412 200.036 245.008C199.745 245.552 199.414 246.073 199.044 246.566L199.984 246.689L200.194 245.712L199.253 245.588L199.404 246.446C199.429 246.532 199.476 246.61 199.54 246.673C199.604 246.736 199.684 246.781 199.77 246.804C199.857 246.826 199.949 246.826 200.035 246.803C200.122 246.78 200.202 246.735 200.266 246.672C201.136 245.772 201.834 244.72 202.325 243.568H201.439C201.672 243.997 201.835 244.46 201.923 244.94C202.047 245.557 202.867 245.327 202.932 244.803C203.08 243.654 203.155 242.497 203.159 241.338H202.129V243.496C202.129 244.055 203.045 244.22 203.142 243.633C203.21 243.113 203.381 242.611 203.646 242.158H202.743C202.961 242.509 203.08 242.912 203.087 243.324C203.087 243.461 203.141 243.592 203.237 243.688C203.334 243.785 203.465 243.839 203.601 243.839C203.738 243.839 203.869 243.785 203.965 243.688C204.062 243.592 204.116 243.461 204.116 243.324L204.247 242.638H203.255C203.354 243.245 203.732 246.665 202.39 246.264C202.163 246.209 202.098 246.223 202.194 246.302L202.5 245.65L203.217 244.13L202.256 243.87C202.318 244.576 202.383 245.585 201.958 246.188C201.614 246.679 200.557 246.874 200.018 246.586C199.663 246.333 199.359 246.014 199.123 245.646L198.419 246.332C198.989 246.748 199.912 247.766 200.647 247.825C201.206 247.869 201.676 247.406 202.043 247.036C202.607 246.454 203.046 245.764 203.334 245.007C203.623 244.251 203.755 243.444 203.722 242.635C203.722 242.498 203.667 242.368 203.571 242.271C203.474 242.175 203.343 242.12 203.207 242.12C203.07 242.12 202.939 242.175 202.843 242.271C202.746 242.368 202.692 242.498 202.692 242.635V243.808C202.692 243.944 202.746 244.075 202.843 244.172C202.939 244.268 203.07 244.322 203.207 244.322C203.343 244.322 203.474 244.268 203.571 244.172C203.667 244.075 203.722 243.944 203.722 243.808V240.93C203.722 240.794 203.667 240.663 203.571 240.566C203.474 240.47 203.343 240.416 203.207 240.416C203.07 240.416 202.939 240.47 202.843 240.566C202.746 240.663 202.692 240.794 202.692 240.93C202.69 241.62 202.63 242.308 202.514 242.988L203.526 243.125C203.445 242.306 203.408 241.483 203.413 240.659C203.411 240.536 203.365 240.417 203.284 240.325C203.202 240.233 203.09 240.173 202.967 240.156C202.845 240.139 202.721 240.167 202.618 240.234C202.514 240.301 202.438 240.404 202.404 240.522C202.249 241.177 202.061 241.822 201.879 242.463L202.819 242.34L202.747 242.065C202.699 241.41 201.669 241.407 201.717 242.065C201.729 242.343 201.801 242.615 201.93 242.861C202.129 243.28 202.75 243.132 202.87 242.738C203.066 242.093 203.241 241.448 203.396 240.796L202.383 240.659C202.378 241.483 202.416 242.306 202.496 243.125C202.548 243.654 203.399 243.88 203.505 243.263C203.642 242.488 203.715 241.703 203.722 240.916H202.692V243.794H203.722V242.621H202.692C202.753 243.915 202.303 245.181 201.439 246.147C201.306 246.299 201.161 246.441 201.007 246.573C200.763 246.806 200.54 246.772 200.345 246.466C199.857 246.264 199.353 245.742 198.927 245.437C198.502 245.132 197.918 245.736 198.22 246.14C199.009 247.19 200.187 248.36 201.652 247.855C203.193 247.31 203.402 245.225 203.286 243.853C203.248 243.396 202.565 243.088 202.328 243.595C201.985 244.319 201.642 245.039 201.299 245.767C201.178 246.02 200.955 246.37 200.99 246.672C201.103 247.444 202.04 247.317 202.616 247.272C204.851 247.104 204.497 243.938 204.24 242.347C204.154 241.818 203.385 241.901 203.248 242.347C203.139 242.66 203.082 242.989 203.08 243.321H204.109C204.072 242.731 203.907 242.156 203.625 241.637C203.579 241.56 203.514 241.496 203.436 241.452C203.359 241.408 203.271 241.385 203.181 241.385C203.092 241.385 203.004 241.408 202.926 241.452C202.848 241.496 202.783 241.56 202.737 241.637C202.43 242.166 202.223 242.748 202.126 243.352L203.155 243.489V241.331C203.155 241.195 203.101 241.064 203.005 240.968C202.908 240.871 202.777 240.817 202.641 240.817C202.504 240.817 202.373 240.871 202.276 240.968C202.18 241.064 202.126 241.195 202.126 241.331C202.122 242.49 202.047 243.647 201.899 244.796L202.912 244.659C202.795 244.098 202.597 243.557 202.325 243.053C202.279 242.977 202.214 242.913 202.136 242.869C202.058 242.825 201.97 242.802 201.88 242.802C201.791 242.802 201.703 242.825 201.625 242.869C201.547 242.913 201.482 242.977 201.436 243.053C200.988 244.128 200.345 245.109 199.538 245.948L200.399 246.175L200.248 245.317C200.169 244.861 199.524 244.847 199.308 245.194C199.138 245.452 199.022 245.742 198.968 246.046C198.914 246.351 198.924 246.663 198.996 246.964C199.082 247.451 199.699 247.399 199.936 247.087C200.306 246.595 200.638 246.076 200.928 245.533L200.039 245.012C199.802 245.524 199.64 246.069 199.559 246.627C199.497 247.08 200.036 247.554 200.42 247.128C201.158 246.321 201.692 245.35 201.978 244.295C202.105 243.829 201.46 243.386 201.117 243.794C200.485 244.55 199.912 245.353 199.401 246.195L200.341 246.593L201.388 242.693C201.415 242.574 201.4 242.45 201.345 242.341C201.29 242.232 201.198 242.146 201.085 242.099C200.973 242.051 200.847 242.045 200.73 242.081C200.614 242.117 200.514 242.193 200.447 242.295L198.388 245.276C198.004 245.828 198.886 246.305 199.277 245.794L202.078 242.089C202.476 241.561 201.583 241.06 201.189 241.568H201.161Z" fill="#FE6D53"/>
<path d="M244.949 253.947C249.067 251.43 252.341 247.674 255.979 244.532C259.926 241.126 264.068 237.953 268.334 234.948C276.619 229.117 285.319 223.9 294.012 218.696C294.125 218.625 294.205 218.513 294.237 218.383C294.269 218.254 294.249 218.117 294.182 218.002C294.114 217.887 294.005 217.803 293.877 217.766C293.749 217.73 293.611 217.745 293.494 217.808C284.801 223.011 276.097 228.218 267.812 234.06C263.903 236.804 260.087 239.712 256.429 242.799C252.448 246.161 248.902 250.346 244.417 253.059C243.85 253.402 244.369 254.294 244.935 253.947H244.949Z" fill="#FE6D53"/>
<path d="M307.302 202.719C302.841 203.172 298.036 204.307 295.29 208.207C292.919 211.562 292.97 217.413 295.198 220.857C297.727 224.771 302.896 224.912 306.911 223.646C310.926 222.38 315.083 220.161 315.045 215.366C315.024 212.793 314.094 210.114 313.068 207.782C312.183 205.768 310.614 204.009 308.239 204.232C307.584 204.293 307.577 205.322 308.239 205.261C311.421 204.966 312.443 208.742 313.198 211.126C313.885 213.352 314.52 215.986 313.442 218.199C312.364 220.411 309.766 221.54 307.546 222.349C305.144 223.22 302.504 223.752 299.996 223.035C295.026 221.646 293.653 215.352 295.085 210.886C296.732 205.741 302.566 204.228 307.319 203.748C307.972 203.683 307.978 202.654 307.319 202.719H307.302Z" fill="#FE6D53"/>
<path d="M314.166 242.508C309.704 242.961 304.899 244.096 302.154 247.996C299.782 251.351 299.834 257.202 302.061 260.646C304.59 264.56 309.759 264.701 313.774 263.435C317.79 262.169 321.946 259.95 321.908 255.155C321.888 252.582 320.957 249.903 319.931 247.571C319.046 245.557 317.477 243.798 315.103 244.021C314.447 244.082 314.44 245.111 315.103 245.05C318.284 244.755 319.307 248.531 320.062 250.915C320.748 253.141 321.383 255.775 320.305 257.988C319.228 260.2 316.63 261.329 314.409 262.138C312.007 263.009 309.368 263.541 306.859 262.824C301.889 261.435 300.517 255.141 301.948 250.675C303.595 245.53 309.43 244.017 314.183 243.537C314.835 243.472 314.842 242.443 314.183 242.508H314.166Z" fill="#FE6D53"/>
<path d="M300.574 212.738L303.824 216.443C303.888 216.505 303.967 216.549 304.054 216.571C304.14 216.594 304.231 216.593 304.318 216.57C304.404 216.547 304.483 216.502 304.547 216.439C304.61 216.377 304.657 216.299 304.682 216.213C305.368 214.409 305.238 212.539 305.399 210.642C305.577 208.682 306.069 206.763 306.857 204.959C308.441 201.3 311.126 198.225 314.538 196.161C315.104 195.818 314.586 194.926 314.02 195.272C310.655 197.297 307.956 200.261 306.253 203.799C305.42 205.521 304.842 207.355 304.537 209.243C304.194 211.469 304.507 213.802 303.683 215.938L304.544 215.709L301.311 212.011C300.872 211.514 300.148 212.244 300.584 212.738H300.574Z" fill="#FE6D53"/>
<path d="M246.604 257.957C264.306 257.417 282.012 257.303 299.723 257.614C300.386 257.614 300.386 256.585 299.723 256.585C282.017 256.269 264.31 256.384 246.604 256.928C245.941 256.949 245.938 257.978 246.604 257.957Z" fill="#FE6D53"/>
<path d="M303.426 247.811C309.477 250.184 315.298 253.108 320.816 256.544C321.379 256.887 321.897 256.005 321.334 255.655C315.744 252.177 309.846 249.219 303.714 246.819C303.1 246.576 302.832 247.571 303.443 247.811H303.426Z" fill="#FE6D53"/>
<path d="M314.414 243.149C308.278 250.299 304.723 259.302 304.321 268.714C304.293 269.376 305.323 269.376 305.35 268.714C305.74 259.573 309.188 250.827 315.142 243.877C315.571 243.376 314.847 242.645 314.414 243.149Z" fill="#FE6D53"/>
<path d="M177.151 254.222L215.51 253.721L219.92 253.663C220.713 253.663 221.506 253.635 222.299 253.632C223.414 253.632 224.166 254.558 224.145 255.69C224.093 258.091 222.583 258.005 220.607 258.091L215.84 258.307L196.428 259.161C192.952 259.315 189.472 259.504 185.995 259.624C182.858 259.72 176.894 258.698 178.287 254.136C178.479 253.501 177.487 253.23 177.292 253.861C176.605 256.105 177.82 258.382 179.777 259.559C182.553 261.226 186.212 260.66 189.276 260.523L213.108 259.442L218.894 259.185C220.377 259.116 222.439 259.418 223.802 258.729C225.401 257.923 225.682 254.722 224.673 253.374C224.155 252.688 223.428 252.627 222.614 252.596C220.48 252.513 218.307 252.654 216.169 252.682L204.288 252.839L177.137 253.182C176.475 253.182 176.475 254.211 177.137 254.211L177.151 254.222Z" fill="#FE6D53"/>
<path d="M377.09 349.578C377.09 366.811 387.907 380.757 401.275 380.757L377.09 349.578Z" fill="#46455B"/>
<path d="M401.277 380.761C401.277 363.332 413.351 349.231 428.27 349.231L401.277 380.761Z" fill="#FE6D53"/>
<path d="M385.855 351.142C385.855 367.514 392.754 380.761 401.275 380.761L385.855 351.142Z" fill="#FE6D53"/>
<path d="M401.277 380.761C401.277 358.493 415.232 340.471 432.474 340.471L401.277 380.761Z" fill="#46455B"/>
<path opacity="0.1" d="M400.232 386.715C403.552 386.715 406.244 386.261 406.244 385.7C406.244 385.139 403.552 384.685 400.232 384.685C396.911 384.685 394.219 385.139 394.219 385.7C394.219 386.261 396.911 386.715 400.232 386.715Z" fill="#FE6D53"/>
<path d="M396.191 380.98C396.191 380.98 399.623 380.874 400.653 380.14C401.683 379.406 405.928 378.524 406.185 379.704C406.443 380.884 411.333 385.573 407.465 385.604C403.598 385.635 398.467 385 397.437 384.373C396.408 383.745 396.191 380.98 396.191 380.98Z" fill="#A8A8A8"/>
<path opacity="0.2" d="M407.537 385.192C403.666 385.223 398.542 384.589 397.509 383.961C396.723 383.484 396.411 381.766 396.305 380.977H396.191C396.191 380.977 396.408 383.741 397.441 384.369C398.474 384.997 403.598 385.631 407.469 385.6C408.588 385.6 408.972 385.192 408.951 384.606C408.797 384.962 408.389 385.185 407.537 385.192Z" fill="black"/>
<path d="M114.719 359.649C114.719 373.369 123.323 384.455 133.958 384.455L114.719 359.649Z" fill="#46455B"/>
<path d="M133.957 384.455C133.957 370.591 143.567 359.371 155.431 359.371L133.957 384.455Z" fill="#FE6D53"/>
<path d="M121.688 360.897C121.688 373.931 127.179 384.462 133.957 384.462L121.688 360.897Z" fill="#FE6D53"/>
<path d="M133.957 384.455C133.957 366.739 145.059 352.401 158.777 352.401L133.957 384.455Z" fill="#46455B"/>
<path opacity="0.1" d="M133.124 389.195C135.766 389.195 137.908 388.833 137.908 388.386C137.908 387.939 135.766 387.576 133.124 387.576C130.482 387.576 128.34 387.939 128.34 388.386C128.34 388.833 130.482 389.195 133.124 389.195Z" fill="#FE6D53"/>
<path d="M129.91 384.63C129.91 384.63 132.639 384.544 133.459 383.944C134.279 383.344 137.66 382.658 137.862 383.601C138.064 384.544 141.963 388.269 138.892 388.293C135.82 388.317 131.733 387.813 130.912 387.316C130.092 386.818 129.91 384.63 129.91 384.63Z" fill="#A8A8A8"/>
<path opacity="0.2" d="M138.936 387.995C135.847 388.019 131.777 387.515 130.957 387.014C130.332 386.636 130.085 385.268 129.999 384.64H129.91C129.91 384.64 130.082 386.839 130.902 387.34C131.722 387.84 135.803 388.341 138.881 388.317C139.77 388.317 140.079 387.995 140.062 387.525C139.938 387.799 139.599 387.974 138.936 387.995Z" fill="black"/>
<g clip-path="url(#clip1)">
<path d="M388.965 295.382H388.239V275.48C388.239 272.425 387.027 269.495 384.871 267.335C382.714 265.174 379.788 263.961 376.738 263.961H334.638C331.588 263.961 328.662 265.174 326.505 267.335C324.348 269.495 323.137 272.425 323.137 275.48V384.667C323.137 387.722 324.348 390.652 326.505 392.812C328.662 394.972 331.587 396.186 334.638 396.186H376.738C379.788 396.186 382.714 394.972 384.871 392.812C387.027 390.652 388.239 387.722 388.239 384.667V309.549H388.964L388.965 295.382Z" fill="#3F3D56"/>
<path d="M385.793 275.56V384.586C385.793 386.663 385.044 388.669 383.682 390.235C382.321 391.802 380.44 392.822 378.387 393.107C377.995 393.162 377.6 393.189 377.204 393.189H334.9C334.504 393.189 334.109 393.162 333.717 393.107C331.664 392.821 329.784 391.801 328.423 390.235C327.062 388.669 326.312 386.663 326.313 384.586V275.56C326.313 273.279 327.217 271.091 328.828 269.477C330.439 267.864 332.624 266.958 334.902 266.958H340.034C339.78 267.578 339.684 268.252 339.752 268.918C339.82 269.585 340.051 270.225 340.424 270.782C340.798 271.338 341.302 271.794 341.893 272.109C342.484 272.424 343.143 272.588 343.812 272.588H367.931C368.6 272.588 369.259 272.424 369.85 272.109C370.441 271.793 370.945 271.338 371.318 270.781C371.691 270.225 371.922 269.585 371.99 268.918C372.058 268.251 371.961 267.578 371.708 266.958H377.204C379.482 266.958 381.667 267.864 383.277 269.477C384.888 271.091 385.793 273.279 385.793 275.56Z" fill="white"/>
<path d="M385.793 356.952V384.586C385.793 386.663 385.044 388.669 383.682 390.235C382.321 391.801 380.44 392.822 378.387 393.107H333.717C331.664 392.821 329.784 391.801 328.423 390.235C327.062 388.669 326.312 386.663 326.313 384.586V356.952H385.793Z" fill="#E6E6E6"/>
<path d="M356.053 380.72C359.19 380.72 361.734 378.173 361.734 375.03C361.734 371.887 359.19 369.34 356.053 369.34C352.915 369.34 350.371 371.887 350.371 375.03C350.371 378.173 352.915 380.72 356.053 380.72Z" fill="white"/>
<path d="M359.458 375.03H356.391V371.957H355.709V375.03H352.641V375.713H355.709V378.786H356.391V375.713H359.458V375.03Z" fill="#E6E6E6"/>
<path d="M374.402 339.149C374.431 339.115 374.43 339.067 374.401 339.043C374.372 339.019 374.326 339.027 374.297 339.061C374.269 339.095 374.27 339.142 374.299 339.166C374.327 339.191 374.374 339.183 374.402 339.149Z" fill="#F2F2F2"/>
<path d="M372.407 326.93C372.17 326.93 371.942 327.025 371.774 327.193C371.606 327.361 371.512 327.589 371.512 327.827V342.844C371.512 343.082 371.606 343.31 371.774 343.478C371.942 343.646 372.17 343.741 372.407 343.741H432.852C433.09 343.741 433.317 343.646 433.485 343.478C433.653 343.31 433.748 343.082 433.748 342.844V327.827C433.748 327.589 433.653 327.361 433.485 327.193C433.317 327.025 433.09 326.93 432.852 326.93H372.407Z" fill="white"/>
<path d="M372.407 326.93C372.17 326.93 371.942 327.025 371.774 327.193C371.606 327.361 371.512 327.589 371.512 327.827V342.844C371.512 343.082 371.606 343.31 371.774 343.478C371.942 343.646 372.17 343.741 372.407 343.741H432.852C433.09 343.741 433.317 343.646 433.485 343.478C433.653 343.31 433.748 343.082 433.748 342.844V327.827C433.748 327.589 433.653 327.361 433.485 327.193C433.317 327.025 433.09 326.93 432.852 326.93H372.407Z" fill="#E6E6E6"/>
<path d="M372.52 342.732H432.741V327.939H372.52V342.732Z" fill="white"/>
<path d="M380.244 340.044C382.841 340.044 384.946 337.936 384.946 335.335C384.946 332.735 382.841 330.627 380.244 330.627C377.648 330.627 375.543 332.735 375.543 335.335C375.543 337.936 377.648 340.044 380.244 340.044Z" fill="#FE6D53"/>
<path d="M391.099 332.197C390.891 332.197 390.692 332.28 390.545 332.427C390.399 332.574 390.316 332.773 390.316 332.981C390.316 333.189 390.399 333.389 390.545 333.536C390.692 333.683 390.891 333.766 391.099 333.766H428.037C428.245 333.766 428.445 333.683 428.592 333.536C428.738 333.389 428.821 333.189 428.821 332.981C428.821 332.773 428.738 332.574 428.592 332.426C428.445 332.279 428.245 332.197 428.037 332.197H391.099Z" fill="#E6E6E6"/>
<path d="M391.099 336.905C390.891 336.905 390.692 336.988 390.545 337.135C390.399 337.283 390.316 337.482 390.316 337.69C390.316 337.898 390.399 338.097 390.545 338.244C390.692 338.392 390.891 338.474 391.099 338.475H428.037C428.245 338.475 428.445 338.392 428.592 338.245C428.738 338.098 428.821 337.898 428.821 337.69C428.821 337.482 428.738 337.282 428.592 337.135C428.445 336.988 428.245 336.905 428.037 336.905H391.099Z" fill="#E6E6E6"/>
<path d="M333.716 281.554C333.54 281.554 333.372 281.624 333.248 281.748C333.125 281.872 333.055 282.04 333.055 282.216V293.298C333.055 293.474 333.125 293.642 333.248 293.766C333.372 293.89 333.54 293.96 333.716 293.96H378.322C378.497 293.96 378.665 293.89 378.789 293.766C378.913 293.642 378.983 293.474 378.983 293.298V282.216C378.983 282.04 378.913 281.872 378.789 281.748C378.665 281.624 378.497 281.554 378.322 281.554H333.716Z" fill="white"/>
<path d="M333.716 281.554C333.54 281.554 333.372 281.624 333.248 281.748C333.125 281.872 333.055 282.04 333.055 282.216V293.298C333.055 293.474 333.125 293.642 333.248 293.766C333.372 293.89 333.54 293.96 333.716 293.96H378.322C378.497 293.96 378.665 293.89 378.789 293.766C378.913 293.642 378.983 293.474 378.983 293.298V282.216C378.983 282.04 378.913 281.872 378.789 281.748C378.665 281.624 378.497 281.554 378.322 281.554H333.716Z" fill="#E6E6E6"/>
<path d="M333.801 293.215H378.242V282.299H333.801V293.215Z" fill="white"/>
<path d="M339.497 291.232C341.413 291.232 342.966 289.676 342.966 287.757C342.966 285.838 341.413 284.282 339.497 284.282C337.581 284.282 336.027 285.838 336.027 287.757C336.027 289.676 337.581 291.232 339.497 291.232Z" fill="#FE6D53"/>
<path d="M347.512 285.44C347.358 285.44 347.211 285.501 347.103 285.61C346.995 285.719 346.934 285.866 346.934 286.02C346.934 286.173 346.995 286.32 347.103 286.429C347.211 286.538 347.358 286.599 347.512 286.599H374.771C374.925 286.599 375.072 286.538 375.18 286.429C375.289 286.32 375.35 286.173 375.35 286.02C375.35 285.866 375.289 285.719 375.18 285.61C375.072 285.501 374.925 285.44 374.771 285.44H347.512Z" fill="#E6E6E6"/>
<path d="M347.511 288.915C347.358 288.916 347.211 288.977 347.103 289.085C346.994 289.194 346.934 289.341 346.934 289.494C346.934 289.648 346.994 289.795 347.103 289.904C347.211 290.012 347.358 290.073 347.511 290.074H374.77C374.846 290.074 374.922 290.059 374.992 290.03C375.062 290.001 375.126 289.958 375.18 289.904C375.234 289.851 375.276 289.787 375.305 289.716C375.335 289.646 375.35 289.571 375.35 289.494C375.35 289.418 375.335 289.343 375.305 289.273C375.276 289.202 375.234 289.138 375.18 289.085C375.126 289.031 375.062 288.988 374.992 288.959C374.922 288.93 374.846 288.915 374.77 288.915H347.511Z" fill="#E6E6E6"/>
<path d="M333.716 301.357C333.54 301.358 333.372 301.427 333.248 301.551C333.125 301.676 333.055 301.844 333.055 302.019V313.102C333.055 313.277 333.125 313.445 333.248 313.569C333.372 313.693 333.54 313.763 333.716 313.763H378.322C378.497 313.763 378.665 313.693 378.789 313.569C378.913 313.445 378.983 313.277 378.983 313.102V302.019C378.983 301.844 378.913 301.676 378.789 301.551C378.665 301.427 378.497 301.358 378.322 301.357H333.716Z" fill="white"/>
<path d="M333.716 301.357C333.54 301.358 333.372 301.427 333.248 301.551C333.125 301.676 333.055 301.844 333.055 302.019V313.102C333.055 313.277 333.125 313.445 333.248 313.569C333.372 313.693 333.54 313.763 333.716 313.763H378.322C378.497 313.763 378.665 313.693 378.789 313.569C378.913 313.445 378.983 313.277 378.983 313.102V302.019C378.983 301.844 378.913 301.676 378.789 301.551C378.665 301.427 378.497 301.358 378.322 301.357H333.716Z" fill="#E6E6E6"/>
<path d="M333.801 313.019H378.242V302.102H333.801V313.019Z" fill="white"/>
<path d="M339.497 311.035C341.413 311.035 342.966 309.48 342.966 307.561C342.966 305.641 341.413 304.086 339.497 304.086C337.581 304.086 336.027 305.641 336.027 307.561C336.027 309.48 337.581 311.035 339.497 311.035Z" fill="#FE6D53"/>
<path d="M347.512 305.244C347.358 305.244 347.211 305.305 347.103 305.413C346.995 305.522 346.934 305.669 346.934 305.823C346.934 305.977 346.995 306.124 347.103 306.232C347.211 306.341 347.358 306.402 347.512 306.402H374.771C374.925 306.402 375.072 306.341 375.18 306.232C375.289 306.124 375.35 305.977 375.35 305.823C375.35 305.669 375.289 305.522 375.18 305.413C375.072 305.305 374.925 305.244 374.771 305.244H347.512Z" fill="#E6E6E6"/>
<path d="M347.511 308.719C347.358 308.719 347.211 308.78 347.103 308.889C346.994 308.997 346.934 309.144 346.934 309.298C346.934 309.451 346.994 309.598 347.103 309.707C347.211 309.816 347.358 309.877 347.511 309.877H374.77C374.924 309.877 375.071 309.816 375.179 309.707C375.288 309.599 375.349 309.451 375.349 309.298C375.349 309.144 375.288 308.997 375.179 308.888C375.071 308.78 374.924 308.719 374.77 308.719H347.511Z" fill="#E6E6E6"/>
</g>
</g>
<defs>
<filter id="filter0_diiii" x="0" y="110" width="540" height="360" filterUnits="userSpaceOnUse" color-interpolation-filters="sRGB">
<feFlood flood-opacity="0" result="BackgroundImageFix"/>
<feColorMatrix in="SourceAlpha" type="matrix" values="0 0 0 0 0 0 0 0 0 0 0 0 0 0 0 0 0 0 127 0"/>
<feOffset dy="20"/>
<feGaussianBlur stdDeviation="20"/>
<feColorMatrix type="matrix" values="0 0 0 0 0 0 0 0 0 0 0 0 0 0 0 0 0 0 0.2 0"/>
<feBlend mode="normal" in2="BackgroundImageFix" result="effect1_dropShadow"/>
<feBlend mode="normal" in="SourceGraphic" in2="effect1_dropShadow" result="shape"/>
<feColorMatrix in="SourceAlpha" type="matrix" values="0 0 0 0 0 0 0 0 0 0 0 0 0 0 0 0 0 0 127 0" result="hardAlpha"/>
<feOffset dy="4"/>
<feGaussianBlur stdDeviation="2"/>
<feComposite in2="hardAlpha" operator="arithmetic" k2="-1" k3="1"/>
<feColorMatrix type="matrix" values="0 0 0 0 0 0 0 0 0 0 0 0 0 0 0 0 0 0 0.1 0"/>
<feBlend mode="normal" in2="shape" result="effect2_innerShadow"/>
<feColorMatrix in="SourceAlpha" type="matrix" values="0 0 0 0 0 0 0 0 0 0 0 0 0 0 0 0 0 0 127 0" result="hardAlpha"/>
<feOffset dy="-4"/>
<feGaussianBlur stdDeviation="2"/>
<feComposite in2="hardAlpha" operator="arithmetic" k2="-1" k3="1"/>
<feColorMatrix type="matrix" values="0 0 0 0 0 0 0 0 0 0 0 0 0 0 0 0 0 0 0.1 0"/>
<feBlend mode="normal" in2="effect2_innerShadow" result="effect3_innerShadow"/>
<feColorMatrix in="SourceAlpha" type="matrix" values="0 0 0 0 0 0 0 0 0 0 0 0 0 0 0 0 0 0 127 0" result="hardAlpha"/>
<feOffset dx="-4"/>
<feGaussianBlur stdDeviation="2"/>
<feComposite in2="hardAlpha" operator="arithmetic" k2="-1" k3="1"/>
<feColorMatrix type="matrix" values="0 0 0 0 0 0 0 0 0 0 0 0 0 0 0 0 0 0 0.1 0"/>
<feBlend mode="normal" in2="effect3_innerShadow" result="effect4_innerShadow"/>
<feColorMatrix in="SourceAlpha" type="matrix" values="0 0 0 0 0 0 0 0 0 0 0 0 0 0 0 0 0 0 127 0" result="hardAlpha"/>
<feOffset dx="4"/>
<feGaussianBlur stdDeviation="2"/>
<feComposite in2="hardAlpha" operator="arithmetic" k2="-1" k3="1"/>
<feColorMatrix type="matrix" values="0 0 0 0 0 0 0 0 0 0 0 0 0 0 0 0 0 0 0.25 0"/>
<feBlend mode="normal" in2="effect4_innerShadow" result="effect5_innerShadow"/>
</filter>
<clipPath id="clip0">
<rect width="325.477" height="260" fill="white" transform="translate(107 140)"/>
</clipPath>
<clipPath id="clip1">
<rect width="110.611" height="132.225" fill="white" transform="translate(323.137 263.961)"/>
</clipPath>
</defs>
</svg>
