<?xml version="1.0" encoding="utf-8"?>
<!-- Generator: Adobe Illustrator 16.0.0, SVG Export Plug-In . SVG Version: 6.00 Build 0)  -->
<!DOCTYPE svg PUBLIC "-//W3C//DTD SVG 1.1//EN" "http://www.w3.org/Graphics/SVG/1.1/DTD/svg11.dtd">
<svg version="1.1" id="Layer_1" xmlns="http://www.w3.org/2000/svg" xmlns:xlink="http://www.w3.org/1999/xlink" x="0px" y="0px"
	 width="539.055px" height="459.679px" viewBox="0 0 539.055 459.679" enable-background="new 0 0 539.055 459.679"
	 xml:space="preserve">
<g>
	<path opacity="0.1" fill="#6466AF" enable-background="new    " d="M336.331,327.011c-0.164,0-0.326,0-0.494-0.031v44.746
		c-5.56-0.457-11.098-1.096-16.615-1.918c-24.857-3.623-49.096-10.678-72.018-20.955c-6.615-2.986-13.099-6.236-19.446-9.758
		c-10.599-5.875-20.755-12.518-30.386-19.875c-2.427-1.854-4.814-3.748-7.169-5.686c-1.633-1.352-3.25-2.73-4.897-4.068
		c-1.133-0.92-2.282-1.834-3.45-2.701v-52.891h122.554c-0.088-0.316-0.166-0.625-0.256-0.941c0.096,0.316,0.184,0.625,0.26,0.941
		h31.43v73.102C336.004,326.98,336.167,326.998,336.331,327.011z"/>
	<rect x="181.854" y="250.183" opacity="0.1" fill="#6466AF" enable-background="new    " width="71.231" height="1.582"/>
	<g>
		<path opacity="0.5" fill="#F4F7FA" enable-background="new    " d="M1.035,183.561H51.07v68.205H4.693
			c-0.117,0.705-0.236,1.405-0.37,2.108H51.07v54.996c-0.078,0-0.158-0.059-0.231-0.088c-1.315-0.523-2.63-1.078-3.943-1.662
			c-0.282-0.127-0.559-0.262-0.846-0.387c-1.313-0.619-2.63-1.277-3.941-1.973c-0.46-0.24-0.919-0.49-1.366-0.748
			c-7.301-4.072-13.935-9.236-19.674-15.313c-0.173-0.164-0.331-0.343-0.493-0.494c-0.799-0.867-1.584-1.744-2.343-2.644
			c-0.285-0.33-0.563-0.666-0.843-0.985c-0.896-1.095-1.766-2.229-2.604-3.367c-0.128-0.172-0.246-0.34-0.37-0.494
			c-3.435-4.75-6.281-9.9-8.479-15.334c-0.069-0.162-0.133-0.338-0.198-0.49c-0.68-1.727-1.297-3.479-1.829-5.262
			c-0.226-0.746-0.446-1.48-0.635-2.254c-0.07-0.223-0.125-0.449-0.183-0.672C0.321,245.785,0,234.435,0,223.138
			c0-1.314,0-2.629,0-3.945c0.038-4.61,0.094-9.218,0.161-13.82c0.027-1.183,0.052-2.37,0.076-3.566
			c0.067-3.02,0.165-6.047,0.295-9.08c0.03-0.84,0.068-1.681,0.113-2.515c0.02-0.483,0.044-0.967,0.075-1.451
			C0.808,187.018,0.914,185.283,1.035,183.561z"/>
		<path opacity="0.1" fill="#FEC40D" enable-background="new    " d="M51.07,107.619H23.622c4.465-6.979,9.339-13.686,14.601-20.086
			c4.081-5.01,8.381-9.891,12.848-14.596L51.07,107.619L51.07,107.619z"/>
		<path opacity="0.1" fill="#FEC40D" enable-background="new    " d="M51.07,109.72v71.729H1.192c0-0.207,0.029-0.418,0.05-0.626
			c0.044-0.567,0.088-1.129,0.138-1.696c0.05-0.661,0.112-1.32,0.178-1.971c0.064-0.65,0.128-1.439,0.206-2.155
			c0.081-0.716,0.143-1.44,0.224-2.154c0.079-0.716,0.157-1.431,0.245-2.14c0.09-0.709,0.168-1.432,0.266-2.141
			c0.075-0.587,0.149-1.179,0.234-1.771c0.112-0.831,0.23-1.665,0.354-2.495c0-0.127,0.04-0.251,0.061-0.374
			c0.9-6.063,2.123-12.073,3.666-18.007c1.622-6.222,3.688-12.319,6.188-18.243c2.657-6.206,5.768-12.209,9.31-17.957H51.07V109.72z
			"/>
		<path opacity="0.1" fill="#FEC40D" enable-background="new    " d="M63.022,183.561v68.205h106.874v-68.205H63.022z
			 M63.022,253.875v58.576c0.611,0.123,1.212,0.246,1.818,0.35c0.813,0.158,1.634,0.301,2.466,0.424l0.493,0.068
			c0.326,0.055,0.655,0.1,0.986,0.139c0.823,0.119,1.648,0.207,2.464,0.287c0.387,0.039,0.785,0.068,1.175,0.105l0.951,0.066l0,0
			c0.518,0.041,1.03,0.068,1.544,0.092c0.315,0,0.63,0.021,0.952,0.033c0.321,0.01,0.493,0,0.749,0h0.932c0.423,0,0.847,0,1.268,0
			h0.542c0.424,0,0.848,0,1.268-0.041h0.023c0.296,0,0.588,0,0.884-0.031c0.082,0.004,0.167,0.004,0.251,0
			c0.247,0,0.492,0,0.731-0.029c0.054-0.006,0.111-0.006,0.166,0c0.547-0.037,1.099-0.078,1.656-0.131
			c0.557-0.049,1.086-0.107,1.643-0.166l1.119-0.141c4.574-0.641,9.097-1.602,13.534-2.881c9.975-2.777,19.723-6.667,29.691-9.514
			c12.88-3.676,27.119-5.483,39.563-1.014v-46.193H63.022z M169.896,107.619V16.818c-11.699-0.129-23.366,1.236-34.72,4.066
			c-27.064,6.8-51.367,21.547-72.154,40.383v46.347h5.379v2.104h-5.379v71.729h106.874V109.72H90.407v-2.11L169.896,107.619z
			 M307.204,76.945c-6.695-0.235-13.353-2.351-19.377-5.63c-11.509-6.256-20.707-15.93-30.983-24.085
			c-21.35-16.996-47.828-27.258-74.989-29.802v90.19h152.558l0.381-0.399L307.204,76.945z M321.104,74.481l14.736,16.177V70.226
			c-4.959,0.627-9.28,2.082-14.736,4.236V74.481z M335.842,326.998v-73.123h-31.43c-0.078-0.311-0.166-0.625-0.266-0.94
			c0.094,0.315,0.178,0.631,0.262,0.94H181.854v52.877c1.164,0.863,2.312,1.775,3.45,2.691l0,0c1.231,1.006,2.451,2.023,3.666,3.053
			l1.221,1.012c0.588,0.492,1.185,0.984,1.776,1.453c1.186,0.957,2.38,1.904,3.583,2.842c0.603,0.473,1.207,0.939,1.814,1.396
			c9.633,7.357,19.788,14.002,30.392,19.875c2.378,1.326,4.778,2.604,7.195,3.85c1.606,0.828,3.227,1.641,4.856,2.436
			c2.445,1.193,4.91,2.344,7.395,3.453c3.729,1.66,0,0,0,0c22.914,10.283,47.138,17.338,71.988,20.963
			c5.516,0.813,11.059,1.453,16.621,1.924v-44.711h0.492L335.842,326.998z M181.854,109.72v71.729H335.84V109.72H181.854z
			 M181.854,183.551v68.214H335.84V183.56L181.854,183.551z M347.793,70.129v22.827L366.6,72.313
			C360.366,71.282,354.098,70.554,347.793,70.129z M347.793,183.561v68.205h149.768v-68.205H347.793z M497.034,332.404l0.525-78.529
			H347.793v118.617c9.647,0.4,19.309,0.283,28.943-0.352l0,0h0.167c4.601-0.297,9.181-0.717,13.741-1.262h0.104
			c24.328-2.832,48.117-9.188,70.621-18.865 M526.454,194.762c-0.568-1.313-1.152-2.629-1.752-3.944
			c-1.111-2.464-2.287-4.861-3.5-7.251h-11.684v68.199h29.537C539.032,232.447,534.139,212.725,526.454,194.762L526.454,194.762z
			 M509.518,253.875v67.549c8.316-7.971,15.355-17.1,20.41-27.53c6.092-12.567,8.877-26.168,9.109-40.021L509.518,253.875z
			 M509.518,163.686v17.749h10.588C516.899,175.333,513.362,169.408,509.518,163.686z M407.948,83.514
			c-0.781-0.302-1.564-0.603-2.35-0.888c-8.264-3.055-16.713-5.595-25.295-7.603l-28.782,31.585l0,0l-0.563,0.606l0.371,0.399
			h102.449C439.506,97.796,424.124,89.705,407.948,83.514z M456.784,109.72H349.893l-2.1,1.919v69.811h18.416l0,0l0,0h131.352
			v-33.822C485.682,133.263,471.973,120.521,456.784,109.72z"/>
		<path opacity="0.5" fill="#F4F7FA" enable-background="new    " d="M51.07,145.904v35.545H1.192c0-0.207,0.029-0.418,0.05-0.626
			c0.044-0.567,0.088-1.129,0.138-1.696c0.05-0.661,0.112-1.32,0.178-1.971c0.064-0.65,0.128-1.439,0.206-2.155
			c0.081-0.716,0.143-1.44,0.224-2.154c0.079-0.716,0.157-1.431,0.245-2.14c0.09-0.709,0.168-1.432,0.266-2.141
			c0.075-0.587,0.149-1.179,0.234-1.771c0.112-0.831,0.23-1.665,0.354-2.495c0-0.127,0.04-0.251,0.061-0.374
			c0.9-6.063,2.123-12.073,3.666-18.007L51.07,145.904z"/>
		<polygon opacity="0.5" fill="#F4F7FA" enable-background="new    " points="100.644,119.996 100.644,181.449 63.018,181.449 
			63.018,119.996 68.382,119.996 68.382,99.188 90.402,99.188 90.402,119.996 		"/>
		<rect x="63.018" y="183.557" opacity="0.5" fill="#F4F7FA" enable-background="new    " width="37.62" height="68.202"/>
		<rect x="304.814" y="112.737" opacity="0.1" fill="#4876BB" enable-background="new    " width="31.022" height="68.708"/>
		<polygon opacity="0.1" fill="#4876BB" enable-background="new    " points="335.842,183.557 335.842,251.765 181.854,251.765 
			181.854,222.345 263.876,222.345 263.876,239.701 304.814,239.701 304.814,183.557 		"/>
		<path opacity="0.5" fill="#F4F7FA" enable-background="new    " d="M465.463,181.449h-99.254c0.008,0.003,0.021,0.003,0.029,0
			h-0.044h-18.401v-68.708h5.219v50.786h23.832V133.45h19.699v-23.73h20.215v23.746h19.688v30.077h29.023L465.463,181.449z"/>
		<path opacity="0.5" fill="#F4F7FA" enable-background="new    " d="M347.793,183.561v68.205h117.676v-68.205H347.793z
			 M497.393,332.044l0.168-53.99h-32.092v-24.16H347.793v118.598c9.647,0.4,19.309,0.283,28.943-0.352l0,0h0.167
			c4.601-0.297,9.181-0.717,13.741-1.262h0.104c24.328-2.832,48.117-9.188,70.621-18.865"/>
		<path opacity="0.5" fill="#F4F7FA" enable-background="new    " d="M511.588,253.875h27.449
			c-0.238,13.851-3.02,27.455-9.109,40.019c-5.055,10.438-12.094,19.563-20.41,27.536v-43.391h2.07V253.875z"/>
		<path opacity="0.5" fill="#F4F7FA" enable-background="new    " d="M539.055,251.765h-27.467v-57.003h14.865
			C534.139,212.725,539.032,232.447,539.055,251.765z"/>
		<rect x="319.221" y="131.838" opacity="0.1" fill="#4876BB" enable-background="new    " width="16.621" height="21.542"/>
		<rect x="319.221" y="176.49" opacity="0.1" fill="#4876BB" enable-background="new    " width="16.621" height="4.959"/>
		<rect x="319.221" y="183.557" opacity="0.1" fill="#4876BB" enable-background="new    " width="16.621" height="14.471"/>
		<rect x="319.221" y="221.142" opacity="0.1" fill="#4876BB" enable-background="new    " width="16.621" height="21.541"/>
		<rect x="319.221" y="265.792" opacity="0.1" fill="#4876BB" enable-background="new    " width="16.621" height="21.543"/>
		<path opacity="0.1" fill="#4876BB" enable-background="new    " d="M335.842,326.976c0.162,0,0.324,0,0.492,0.035
			c-0.162,0-0.324,0-0.492-0.031v5.006h-16.621v-21.541h16.621V326.976z"/>
		<path opacity="0.1" fill="#4876BB" enable-background="new    " d="M335.842,355.089v16.637
			c-5.563-0.457-11.104-1.096-16.621-1.918v-14.719H335.842z"/>
		<rect x="181.854" y="253.873" opacity="0.1" fill="#4876BB" enable-background="new    " width="71.231" height="6.063"/>
		<rect x="181.854" y="279.814" opacity="0.1" fill="#4876BB" enable-background="new    " width="71.231" height="9.752"/>
		<path opacity="0.1" fill="#4876BB" enable-background="new    " d="M253.086,309.449v9.752h-55.715
			c-2.427-1.848-4.814-3.744-7.169-5.691c-1.638-1.344-3.254-2.727-4.897-4.061H253.086z"/>
		<path opacity="0.1" fill="#4876BB" enable-background="new    " d="M253.086,339.076v9.777h-5.883
			c-6.615-2.986-13.099-6.236-19.446-9.758L253.086,339.076z"/>
		<rect x="73.119" y="124.831" opacity="0.1" fill="#4876BB" enable-background="new    " width="14.022" height="14.023"/>
		<rect x="73.119" y="157.403" opacity="0.1" fill="#4876BB" enable-background="new    " width="14.022" height="14.021"/>
		<rect x="73.119" y="189.975" opacity="0.1" fill="#4876BB" enable-background="new    " width="14.022" height="14.023"/>
		<rect x="73.119" y="222.541" opacity="0.1" fill="#4876BB" enable-background="new    " width="14.022" height="14.023"/>
		<rect x="430.266" y="190.166" opacity="0.1" fill="#4876BB" enable-background="new    " width="14.025" height="14.024"/>
		<rect x="430.266" y="224.755" opacity="0.1" fill="#4876BB" enable-background="new    " width="14.025" height="14.021"/>
		<rect x="430.266" y="259.337" opacity="0.1" fill="#4876BB" enable-background="new    " width="14.025" height="14.022"/>
		<rect x="430.266" y="293.927" opacity="0.1" fill="#4876BB" enable-background="new    " width="14.025" height="14.023"/>
		<rect x="430.266" y="328.515" opacity="0.1" fill="#4876BB" enable-background="new    " width="14.025" height="14.021"/>
		<path fill="#E7EDF4" d="M3.086,163.911v8.024H51.07v-8.024H3.086z M7.863,171.431H3.919v-7.011h3.944V171.431z M12.643,171.431
			H8.696v-7.011h3.946L12.643,171.431L12.643,171.431z M17.41,171.431h-3.944v-7.011h3.944V171.431z M22.188,171.431h-3.946v-7.011
			h3.946V171.431z M26.961,171.431h-3.945v-7.011h3.945V171.431z M31.738,171.431h-3.945v-7.011h3.945V171.431z M36.516,171.431
			H32.57v-7.011h3.945L36.516,171.431L36.516,171.431z M41.288,171.431h-3.945v-7.011h3.945V171.431z M46.061,171.431h-3.943v-7.011
			h3.943V171.431z M50.839,171.431h-3.943v-7.011h3.943V171.431z"/>
		<path opacity="0.1" fill="#4876BB" enable-background="new    " d="M3.086,187.264v8.022H51.07v-8.022H3.086z M7.863,194.782
			H3.919v-7.012h3.944V194.782z M12.643,194.782H8.696v-7.012h3.946L12.643,194.782L12.643,194.782z M17.41,194.782h-3.944v-7.012
			h3.944V194.782z M22.188,194.782h-3.946v-7.012h3.946V194.782z M26.961,194.782h-3.945v-7.012h3.945V194.782z M31.738,194.782
			h-3.945v-7.012h3.945V194.782z M36.516,194.782H32.57v-7.012h3.945L36.516,194.782L36.516,194.782z M41.288,194.782h-3.945v-7.012
			h3.945V194.782z M46.061,194.782h-3.943v-7.012h3.943V194.782z M50.839,194.782h-3.943v-7.012h3.943V194.782z"/>
		<path opacity="0.1" fill="#4876BB" enable-background="new    " d="M3.086,210.62v8.016H51.07v-8.016H3.086z M7.863,218.128H3.919
			v-7.011h3.944V218.128z M12.643,218.128H8.696v-7.011h3.946L12.643,218.128L12.643,218.128z M17.41,218.128h-3.944v-7.011h3.944
			V218.128z M22.188,218.128h-3.946v-7.011h3.946V218.128z M26.961,218.128h-3.945v-7.011h3.945V218.128z M31.738,218.128h-3.945
			v-7.011h3.945V218.128z M36.516,218.128H32.57v-7.011h3.945L36.516,218.128L36.516,218.128z M41.288,218.128h-3.945v-7.011h3.945
			V218.128z M46.061,218.128h-3.943v-7.011h3.943V218.128z M50.839,218.128h-3.943v-7.011h3.943V218.128z"/>
		<path opacity="0.1" fill="#4876BB" enable-background="new    " d="M3.086,233.972v8.016H51.07v-8.016H3.086z M7.863,241.484
			H3.919v-7.021h3.944V241.484z M12.643,241.484H8.696v-7.021h3.946L12.643,241.484L12.643,241.484z M17.41,241.484h-3.944v-7.021
			h3.944V241.484z M22.188,241.484h-3.946v-7.021h3.946V241.484z M26.961,241.484h-3.945v-7.021h3.945V241.484z M31.738,241.484
			h-3.945v-7.021h3.945V241.484z M36.516,241.484H32.57v-7.021h3.945L36.516,241.484L36.516,241.484z M41.288,241.484h-3.945v-7.021
			h3.945V241.484z M46.061,241.484h-3.943v-7.021h3.943V241.484z M50.839,241.484h-3.943v-7.021h3.943V241.484z"/>
		<path opacity="0.1" fill="#4876BB" enable-background="new    " d="M366.209,181.449L366.209,181.449L366.209,181.449z
			 M335.836,326.976L335.836,326.976h0.494H335.836z M304.147,252.933c0.094,0.316,0.178,0.631,0.262,0.941l0,0
			C304.334,253.564,304.247,253.25,304.147,252.933z M366.209,181.449L366.209,181.449L366.209,181.449z M68.401,107.619v2.101
			h22.025v-2.11L68.401,107.619z M335.842,326.976L335.842,326.976h0.492H335.842z M304.147,252.933
			c0.094,0.316,0.178,0.631,0.262,0.941l0,0C304.334,253.564,304.247,253.25,304.147,252.933z M366.209,181.449L366.209,181.449
			L366.209,181.449z M335.836,326.976L335.836,326.976h0.494H335.836z M304.147,252.933c0.094,0.316,0.178,0.631,0.262,0.941l0,0
			C304.334,253.564,304.247,253.25,304.147,252.933z"/>
	</g>
	<ellipse opacity="0.1" fill="#7B7C7E" enable-background="new    " cx="128.929" cy="440.871" rx="111.502" ry="15.137"/>
	<ellipse opacity="0.1" fill="#7B7C7E" enable-background="new    " cx="423.249" cy="436.947" rx="103.252" ry="14.713"/>
	<ellipse opacity="0.1" fill="#7B7C7E" enable-background="new    " cx="249.82" cy="406.609" rx="110.974" ry="14.711"/>
	<g>
		<path fill="#293C6C" d="M359.228,96.405h-2.231V35.341C356.997,15.823,341.174,0,321.653,0l0,0H192.281
			c-19.516,0-35.34,15.823-35.34,35.341l0,0v335.004c0,19.516,15.824,35.342,35.34,35.342l0,0h129.372
			c19.521,0,35.344-15.826,35.344-35.342l0,0V139.871h2.23L359.228,96.405L359.228,96.405z"/>
		<path fill="#FFFFFF" d="M323.081,9.194h-16.886c2.615,6.412-0.466,13.731-6.879,16.346c-1.501,0.613-3.108,0.929-4.733,0.929
			h-74.116c-6.924,0-12.538-5.614-12.535-12.54c0-1.623,0.315-3.23,0.929-4.734h-15.775c-14.577,0-26.392,11.817-26.392,26.394l0,0
			v334.51c0,14.576,11.814,26.395,26.392,26.395l0,0h129.995c14.576,0,26.396-11.816,26.396-26.395l0,0V35.588
			C349.476,21.012,337.657,9.194,323.081,9.194z"/>
		<rect x="239.304" y="160.716" fill="#4876BB" width="46.077" height="4.279"/>
		<rect x="239.304" y="175.519" fill="#C3D4E7" width="80.308" height="4.278"/>
		<rect x="239.304" y="190.319" fill="#C3D4E7" width="80.231" height="4.279"/>
		<rect x="195.525" y="160.78" fill="#4876BB" width="34.23" height="34.231"/>
		<rect x="239.304" y="240.574" fill="#FEC40D" width="46.077" height="4.279"/>
		<rect x="239.304" y="255.375" fill="#C3D4E7" width="80.308" height="4.279"/>
		<rect x="239.304" y="270.177" fill="#C3D4E7" width="80.231" height="4.279"/>
		<rect x="195.525" y="240.636" fill="#FEC40D" width="34.23" height="34.232"/>
		<rect x="239.304" y="320.431" fill="#F15926" width="46.077" height="4.277"/>
		<rect x="239.304" y="335.232" fill="#C3D4E7" width="80.308" height="4.279"/>
		<rect x="239.304" y="350.035" fill="#C3D4E7" width="80.231" height="4.279"/>
		<rect x="195.525" y="320.494" fill="#F15926" width="34.23" height="34.232"/>
		<path fill="#E8E8E8" d="M288.497,85.919c-14.122-6.624-60.078,0-60.078,0s0.852,9.549,9.328,23.888
			c0.002,0.001,0.005,0.001,0.007,0.001c1.214,5.715,10.014,10.152,20.705,10.152c11.12,0,20.181-4.802,20.8-10.845
			c0.039-0.008,0.06-0.011,0.06-0.011S286.611,99.029,288.497,85.919"/>
		<path fill="#C9C9C9" d="M288.564,84.861c0,9.166-13.479,16.598-30.105,16.598s-30.105-7.432-30.105-16.598
			c0-9.167,13.478-16.598,30.105-16.598S288.564,75.694,288.564,84.861"/>
		<path fill="#F15723" d="M258.458,66.046c-15.836,0-28.675,12.735-28.675,21.467c0,1.204,0.253,2.375,0.715,3.501
			c4.435,6.119,15.277,10.444,27.96,10.444s23.525-4.325,27.961-10.444c0.46-1.126,0.712-2.297,0.712-3.501
			C287.131,78.782,274.293,66.046,258.458,66.046"/>
		<path fill="#F4794F" d="M254.088,87.989c1.517,2.345,3.174,3.244,6.623,4.417c9.222,1.842,22.286-0.94,25.057-10.268
			c-3.699-7.792-14.527-16.091-27.31-16.091c-0.783,0-1.558,0.039-2.327,0.1C251.42,72.069,250.253,81.275,254.088,87.989"/>
		<path fill="#FEC400" d="M256.021,95.056c0,1.167-0.946,2.114-2.114,2.114c-1.167,0-2.114-0.947-2.114-2.114
			c0-1.167,0.946-2.113,2.114-2.113C255.075,92.943,256.021,93.889,256.021,95.056"/>
		<path fill="#FEC400" d="M268.779,86.199c0,1.353-1.095,2.447-2.447,2.447c-1.351,0-2.446-1.095-2.446-2.447
			c0-1.35,1.095-2.446,2.446-2.446C267.684,83.753,268.779,84.849,268.779,86.199"/>
		<path fill="#FEC400" d="M247.465,81.703c0,1.22-0.989,2.208-2.209,2.208c-1.218,0-2.208-0.988-2.208-2.208
			c0-1.22,0.991-2.208,2.208-2.208C246.476,79.494,247.465,80.482,247.465,81.703"/>
		<path fill="#FEC400" d="M251.742,73.913c0,0.763-0.617,1.381-1.379,1.381c-0.762,0-1.381-0.618-1.381-1.381
			c0-0.762,0.619-1.38,1.381-1.38C251.125,72.532,251.742,73.15,251.742,73.913"/>
		<path fill="#FEC400" d="M268.779,73.6c0,1.732-1.403,3.136-3.135,3.136c-1.733,0-3.138-1.404-3.138-3.136
			c0-1.733,1.404-3.137,3.138-3.137C267.376,70.463,268.779,71.867,268.779,73.6"/>
		<path fill="#FEC400" d="M284.418,84.999c0,1.82-1.477,3.297-3.298,3.297c-1.82,0-3.295-1.478-3.295-3.297s1.475-3.297,3.295-3.297
			C282.942,81.702,284.418,83.179,284.418,84.999"/>
		<path fill="#FEC400" d="M239.598,86.533c0,1.447-1.173,2.622-2.622,2.622c-1.448,0-2.622-1.175-2.622-2.622
			c0-1.448,1.173-2.623,2.622-2.623C238.425,83.91,239.598,85.084,239.598,86.533"/>
		<path fill="#FEC400" d="M278.284,72.562c0,0.747-0.604,1.351-1.353,1.351c-0.745,0-1.351-0.604-1.351-1.351
			c0-0.746,0.605-1.352,1.351-1.352C277.679,71.209,278.284,71.815,278.284,72.562"/>
		<path fill="#FEC400" d="M243.738,71.843c0,1.143-0.927,2.07-2.07,2.07c-1.142,0-2.07-0.927-2.07-2.07
			c0-1.144,0.928-2.07,2.07-2.07C242.811,69.773,243.738,70.699,243.738,71.843"/>
	</g>
	<g>
		<path fill="#F3F3F3" d="M345.293,436.572c0,0,102.039-85.162,160.807,0"/>
		<path fill="#11A049" d="M346.017,388.236h11.14c2.008,0,3.637,1.629,3.637,3.637v41.215c0,2.008-1.629,3.637-3.637,3.637h-11.14
			c-2.009,0-3.638-1.629-3.638-3.637v-41.215C342.379,389.865,344.008,388.236,346.017,388.236z"/>
		<path fill="#11A049" d="M381,359.082h11.141c2.008,0,3.637,1.629,3.637,3.639v70.367c0,2.008-1.629,3.637-3.637,3.637H381
			c-2.01,0-3.637-1.629-3.637-3.637V362.72C377.364,360.71,378.991,359.082,381,359.082z"/>
		<path fill="#11A049" d="M415.987,338.828h11.139c2.006,0,3.637,1.629,3.637,3.639v90.621c0,2.008-1.631,3.637-3.637,3.637h-11.139
			c-2.012,0-3.639-1.629-3.639-3.637v-90.621C412.348,340.457,413.977,338.828,415.987,338.828z"/>
		<path fill="#11A049" d="M450.969,319.494h11.139c2.012,0,3.639,1.629,3.639,3.639v109.955c0,2.008-1.627,3.637-3.639,3.637
			h-11.139c-2.008,0-3.637-1.629-3.637-3.637V323.132C447.333,321.123,448.961,319.494,450.969,319.494z"/>
		<path fill="#11A049" d="M485.956,285.738h11.137c2.012,0,3.641,1.627,3.641,3.637v143.713c0,2.008-1.629,3.637-3.641,3.637
			h-11.137c-2.01,0-3.637-1.629-3.637-3.637V289.375C482.319,287.365,483.946,285.738,485.956,285.738z"/>
		<path fill="none" stroke="#403E56" stroke-miterlimit="10" d="M348.471,385.781h11.14c2.011,0,3.638,1.629,3.638,3.639v41.211
			c0,2.01-1.627,3.639-3.638,3.639h-11.14c-2.008,0-3.637-1.629-3.637-3.639v-41.211
			C344.834,387.41,346.463,385.781,348.471,385.781z"/>
		<path fill="none" stroke="#403E56" stroke-miterlimit="10" d="M383.456,356.628h11.141c2.008,0,3.637,1.627,3.637,3.635v70.367
			c0,2.01-1.629,3.639-3.637,3.639h-11.141c-2.008,0-3.638-1.629-3.638-3.639v-70.367
			C379.818,358.255,381.448,356.628,383.456,356.628z"/>
		<path fill="none" stroke="#403E56" stroke-miterlimit="10" d="M418.44,336.373h11.141c2.008,0,3.637,1.629,3.637,3.637v90.621
			c0,2.01-1.629,3.639-3.637,3.639H418.44c-2.008,0-3.637-1.629-3.637-3.639v-90.621
			C414.803,338.001,416.432,336.373,418.44,336.373z"/>
		<path fill="none" stroke="#403E56" stroke-miterlimit="10" d="M453.426,317.041h11.139c2.008,0,3.637,1.627,3.637,3.637V430.63
			c0,2.01-1.629,3.639-3.637,3.639h-11.139c-2.01,0-3.637-1.629-3.637-3.639V320.677
			C449.79,318.667,451.417,317.041,453.426,317.041z"/>
		<path fill="none" stroke="#403E56" stroke-miterlimit="10" d="M488.411,283.281h11.137c2.012,0,3.639,1.629,3.639,3.639V430.63
			c0,2.01-1.627,3.639-3.639,3.639h-11.137c-2.008,0-3.637-1.629-3.637-3.639V286.919
			C484.774,284.91,486.403,283.281,488.411,283.281z"/>
		<polyline fill="none" stroke="#010101" stroke-miterlimit="10" points="353.888,367.216 388.872,338.06 424.163,318.113 
			459.149,298.781 494.133,265.023 		"/>
		<circle fill="#F3F3F3" cx="352.965" cy="368.75" r="3.375"/>
		<circle fill="#F3F3F3" cx="387.952" cy="339.595" r="3.375"/>
		<circle fill="#F3F3F3" cx="423.243" cy="319.647" r="3.376"/>
		<circle fill="#F3F3F3" cx="458.227" cy="300.314" r="3.377"/>
		<path fill="none" stroke="#403E56" stroke-miterlimit="10" d="M353.888,363.837c1.862,0,3.374,1.514,3.374,3.379
			c0,1.861-1.512,3.375-3.374,3.375c-1.865,0-3.378-1.514-3.378-3.375C350.51,365.351,352.022,363.837,353.888,363.837z"/>
		<circle fill="none" stroke="#403E56" stroke-miterlimit="10" cx="388.872" cy="338.061" r="3.376"/>
		<path fill="none" stroke="#403E56" stroke-miterlimit="10" d="M424.163,314.738c1.865,0,3.377,1.512,3.377,3.375
			c0,1.865-1.512,3.377-3.377,3.377c-1.863,0-3.375-1.512-3.375-3.377C420.788,316.25,422.299,314.738,424.163,314.738z"/>
	</g>
	<g>
		<polygon fill="#EFC79C" points="119.927,401.066 116.471,406.665 115.333,408.263 121.441,411.564 125.568,404.771 		"/>
		<path fill="#B5411A" d="M112.231,341.536c0,0,36.798,11.545,41.872,17.699c5.074,6.153-28.059,46.674-28.059,46.674l-7.577-4.54
			c0,0,10.789-26.582,20.162-31.243c1.869-3.211-17.284-5.476-33.447-6.484c-16.163-1.008-13.159-10.643-7.939-22.464
			C106.707,337.128,112.231,341.536,112.231,341.536"/>
		<path fill="#F7C58D" d="M108.006,286.956c0,0,3.896-8.018,4.434-12.636c5.629,7.305,10.2,10.82,10.306,11.139
			c-4.475,4.782-5.475,12.206-5.475,12.206L108.006,286.956z"/>
		<path fill="#EE2631" d="M52.961,382.825l-6.112-0.009c-1.663-0.001-3.228,0.789-4.213,2.127l-5.157,7.004
			c-1.278,1.734-1.36,4.076-0.205,5.896l2.543,4.01L52.961,382.825z"/>
		<path fill="#F1515A" d="M36.957,394.339l5.158-7.004c0.986-1.337,2.551-2.127,4.213-2.125l4.982,0.005l1.652-2.391l-6.112-0.009
			c-1.663-0.001-3.228,0.789-4.213,2.127l-5.157,7.004c-0.7,0.947-1.028,2.078-1.004,3.204
			C36.612,394.871,36.767,394.597,36.957,394.339"/>
		<path fill="#333333" d="M218.298,426.707c-0.017,12.668-10.3,22.927-22.97,22.908c-12.67-0.015-22.927-10.3-22.909-22.97
			c0.016-12.67,10.3-22.927,22.969-22.91C208.058,403.753,218.315,414.036,218.298,426.707"/>
		<path fill="#FFECC5" d="M213.061,426.699c-0.012,9.776-7.95,17.692-17.725,17.68c-9.778-0.013-17.694-7.949-17.681-17.727
			c0.012-9.776,7.949-17.691,17.726-17.679C205.158,408.986,213.074,416.923,213.061,426.699"/>
		<path fill="#E2E2E2" d="M208.984,426.694c-0.01,7.525-6.119,13.619-13.645,13.609c-7.526-0.011-13.618-6.119-13.609-13.646
			c0.01-7.526,6.119-13.618,13.646-13.608C202.903,413.058,208.994,419.167,208.984,426.694"/>
		<path fill="#A5A5A5" d="M207.103,426.692c-0.009,6.486-5.273,11.736-11.76,11.728c-6.487-0.007-11.736-5.273-11.729-11.759
			c0.009-6.486,5.274-11.737,11.761-11.729C201.859,414.94,207.111,420.204,207.103,426.692"/>
		
			<rect x="188.268" y="400.918" transform="matrix(0.938 -0.3468 0.3468 0.938 -131.919 91.945)" fill="#E2E2E2" width="5.402" height="27.37"/>
		<path fill="#333333" d="M198.898,426.681c-0.003,1.954-1.589,3.538-3.545,3.533c-1.954-0.002-3.537-1.589-3.534-3.543
			c0.002-1.956,1.589-3.537,3.543-3.535C197.317,423.138,198.9,424.724,198.898,426.681"/>
		<path fill="#7F7F7F" d="M197.155,426.677c-0.001,0.993-0.807,1.797-1.798,1.796c-0.993-0.002-1.796-0.808-1.795-1.8
			c0.001-0.991,0.807-1.796,1.798-1.795C196.353,424.879,197.156,425.686,197.155,426.677"/>
		<path fill="#333333" d="M89.471,426.536c-0.016,12.67-10.301,22.929-22.97,22.91c-12.67-0.016-22.928-10.302-22.911-22.97
			c0.018-12.671,10.301-22.928,22.971-22.911C79.231,403.583,89.487,413.865,89.471,426.536"/>
		<path fill="#FFECC5" d="M84.233,426.529c-0.013,9.777-7.949,17.691-17.726,17.68c-9.777-0.013-17.693-7.948-17.679-17.727
			c0.013-9.776,7.948-17.691,17.726-17.679C76.331,408.817,84.247,416.753,84.233,426.529"/>
		<path fill="#E2E2E2" d="M80.158,426.524c-0.01,7.526-6.12,13.62-13.645,13.61c-7.526-0.012-13.618-6.12-13.609-13.646
			c0.01-7.526,6.119-13.62,13.645-13.609C74.075,412.889,80.168,418.999,80.158,426.524"/>
		<path fill="#A5A5A5" d="M78.275,426.523c-0.007,6.485-5.273,11.735-11.76,11.728c-6.486-0.009-11.737-5.273-11.729-11.76
			c0.008-6.485,5.273-11.739,11.76-11.729C73.032,414.77,78.285,420.036,78.275,426.523"/>
		<path fill="#333333" d="M70.071,426.511c-0.002,1.954-1.589,3.538-3.544,3.535c-1.956-0.004-3.538-1.591-3.535-3.545
			c0.002-1.955,1.589-3.538,3.545-3.536C68.491,422.967,70.074,424.555,70.071,426.511"/>
		<path fill="#7F7F7F" d="M68.327,426.509c-0.001,0.99-0.806,1.794-1.798,1.794c-0.992-0.002-1.796-0.808-1.795-1.8
			c0.002-0.992,0.808-1.795,1.799-1.793C67.526,424.711,68.328,425.516,68.327,426.509"/>
		<path fill="#FED033" d="M177.164,410.706c0,0,18.789-9.232,38.731-4.1c-0.146-10.374-8.106-24.427-31.894-18.715
			C160.214,393.605,177.164,410.706,177.164,410.706"/>
		<path fill="#FFCF03" d="M182.643,389.088c-4.068,0.976-6.935,2.288-8.908,3.787c-0.776,0.81-1.339,1.657-1.726,2.527
			c1.938-1.303,4.606-2.44,8.235-3.313c20.021-4.81,28.82,4.385,31.194,13.604c1,0.157,2.005,0.347,3.014,0.571
			C213.575,396.108,205.274,383.65,182.643,389.088"/>
		<path fill="#EFEFEF" d="M171.645,318.013c0,0,5.061,8.932,0.421,15.467C168.075,332.493,171.645,318.013,171.645,318.013"/>
		<path fill="#FEC400" d="M184.001,387.891l7.344-2.063c0,0-6.836-20.599-24.828-51.422c-1.598,0.689-3.402,1.237-3.402,1.237
			L184.001,387.891z"/>
		<path fill="#FFB206" d="M156.459,335.909c0,0,15.869,37.911,6.579,58.546c-1.824,7.026,7.044,5.121,7.044,5.121
			s10.157-22.86-10.986-65.18C158.112,333.809,156.459,335.909,156.459,335.909"/>
		<path fill="#FEC400" d="M126.359,369.304c0,0-42.345-0.057-50.431-0.067c-8.086-0.01-33.636,11.021-41.554,45.27
			c21.279,0.029,43.276,0.057,49.447,0.065c6.171,0.007,7.384,11.073,7.384,11.073c23.194,0.031,54.656,0.072,61.892,0.083
			c7.233,0.01,20.038-27.851,13.249-42.115c-3,14.892-9.607,22.543-17.057,24.662c-5.729,1.627-22.53,1.48-29.985,1.325
			c-2.213-0.045-4.1-1.598-4.584-3.757c-0.928-4.132-2.051-11.049-0.94-16.98C115.493,379.716,125.497,378.453,126.359,369.304"/>
		<path fill="#FED033" d="M33.308,416.419l60.326,0.08c0,0,8.802-18.819,1.794-29.522c-7.008-10.702-35.898-7.389-48.201,3.448
			C34.924,401.26,33.308,416.419,33.308,416.419"/>
		<path fill="#FED033" d="M91.652,416.497c1.748-4.221,6.836-18.26,1.18-26.829c-6.367-9.647-31.575-7.313-44.222,1.738
			c13.386-6.445,33.518-7.221,39.111,1.255c4.676,7.084,2.007,17.907-0.046,23.831L91.652,416.497z"/>
		<path fill="#FFCF03" d="M89.48,419.207c0,0,39.419,0.052,50.432,0.067c11.011,0.015,32.729-17.033,28.379-43.213
			c-4.349-26.179-11.036-38.636-11.036-38.636l7.663-2.33c0,0,14.645,28.532,17.826,37.05c3.181,8.514,7.938,31.396-9.318,47.173
			c-7.029,5.896-12.459,8.283-20.439,8.272c-7.98-0.012-61.283-0.081-61.283-0.081L89.48,419.207z"/>
		<path fill="#FFE10B" d="M182.745,372.145c-3.181-8.518-17.826-37.05-17.826-37.05l-2.86,0.87
			c3.521,7.331,13.674,28.783,15.898,36.918c2.396,8.768,7.487,32.274-9.771,48.051c-3.354,2.812-6.342,4.817-9.418,6.152
			c5.13-0.97,9.458-3.407,14.659-7.769C190.683,403.541,185.925,380.659,182.745,372.145"/>
		<path fill="#4C4C4C" d="M141.025,421.485c11.013,0.014,33.436-17.806,29.085-43.983c-3.926-23.634-10.674-37.816-11.95-40.352
			l-0.905,0.276c0,0,6.687,12.456,11.036,38.635c4.35,26.18-17.369,43.228-28.379,43.213c-11.013-0.016-50.432-0.067-50.432-0.067
			l0.592,2.211C98.17,421.428,131.381,421.471,141.025,421.485"/>
		<path fill="#4C4C4C" d="M79.267,358.389c0,0-7.994,10.841,0.384,10.852c8.379,0.011,44.42,0.059,46.708,0.063
			c2.287,0.003,5.41-8.771,1.182-9.097c-4.229-0.325-17.317,1.254-27.209-0.992C90.441,356.968,82.304,354.881,79.267,358.389"/>
		<path fill="#FFCF03" d="M156.617,338.063c0,0,10.217-3.338,11.495-3.655s3.992-0.633,3.992-0.633s-1.661-12.291,0.02-15.72
			c-3.586-3.437-8.615-2.325-13.888,2.615c-5.272,4.94-7.108,5.814-6.711,7.171C151.92,329.2,156.617,338.063,156.617,338.063"/>
		<path fill="#A5A5A5" d="M157.458,325.728l-0.363-0.613l7.245-4.281c0.536-0.317,0.915-0.848,1.039-1.458l2.848-13.991l0.698,0.141
			l-2.85,13.993c-0.164,0.806-0.666,1.509-1.374,1.929L157.458,325.728z"/>
		<path fill="#EFC100" d="M161.417,328.355c-0.002,2.433-1.863,4.405-4.154,4.402c-2.292-0.002-4.147-1.979-4.144-4.414
			c0.002-2.435,1.864-4.406,4.155-4.404C159.566,323.944,161.42,325.919,161.417,328.355"/>
		<path fill="#21457A" d="M147.539,324.566c0,0,4.644-0.154,6.332-1.693c1.687-1.542,3.542-1.494,5.241-0.066
			c1.698,1.427,3.026,4.271,2.293,5.857c-0.734,1.584-2.49,2.275-3.713,1.846c0.477,1.119-2.166,1.287-3.476,0.817
			c-1.313-0.47-4.397-1.252-5.621-0.989C147.532,328.955,147.539,324.566,147.539,324.566"/>
		<path fill="#FFB206" d="M154.883,334.75c0.952,1.838,1.733,3.313,1.733,3.313s10.217-3.338,11.495-3.656
			c1.277-0.316,3.992-0.632,3.992-0.632s-0.303-2.254-0.521-5.099C167.541,332.939,161.145,334.379,154.883,334.75"/>
		<path fill="#353535" d="M159.103,327.454c-0.001,1.278-1.038,2.313-2.315,2.312c-1.279-0.003-2.313-1.04-2.312-2.318
			c0.001-1.278,1.039-2.312,2.317-2.31C158.071,325.138,159.106,326.175,159.103,327.454"/>
		<path fill="#FFCF03" d="M169.714,303.995c-0.618,3.63-2.275,6.376-3.703,6.134c-1.428-0.241-2.086-3.382-1.468-7.014
			c0.617-3.628,2.275-6.375,3.703-6.131C169.673,297.226,170.33,300.365,169.714,303.995"/>
		<path fill="#EFEFEF" d="M168.355,303.765c-0.492,2.891-1.626,5.112-2.534,4.956c-0.908-0.155-1.244-2.623-0.753-5.517
			c0.492-2.891,1.625-5.11,2.534-4.956C168.51,298.404,168.847,300.873,168.355,303.765"/>
		<polygon fill="#FFDAAE" points="128.044,402.82 125.482,408.881 124.603,410.636 131.143,412.964 134.183,405.622 		"/>
		<path fill="#F15723" d="M112.826,343.35c0,0,37.868,7.302,43.607,12.841c5.739,5.541-21.899,50.788-21.899,50.788l-8.043-3.653
			c0,0,7.016-28.866,15.802-34.56c1.494-3.404-17.792-3.482-33.966-2.653c-16.173,0.831-21.477-10.454-17.63-22.791
			C99.64,338.226,112.826,343.35,112.826,343.35"/>
		<path fill="#F4794F" d="M134.534,406.979c0,0,27.638-45.247,21.899-50.788c-4.242-4.095-26.041-9.153-37.121-11.51
			c-3.308,0.18-7.745,1.254-11.546,5.047c8.778-1.823,36.699,4.598,42.125,6.041c5.423,1.443,5.818,4.236,4.057,8.942
			c-1.701,4.547-16.762,35.103-20.744,41.663L134.534,406.979z"/>
		<path fill="#337AE2" d="M90.215,346.115c0,0-3.725-40.677,17.791-59.159c5.317,2.347,9.565,8.523,11.686,13.845
			c2.121,5.323,0.586,39.155-0.056,41.709c-0.167,0.665-1.796,1.445-4.264,2.173C108.375,346.746,96.503,348.641,90.215,346.115"/>
		<path fill="#5C95E8" d="M109.678,306.296c1.187,7.162,5.151,24.47,8.373,27.805c5.327,5.514,30.965-1.74,30.965-1.74l-0.84-7.785
			c-7.98-0.117-18.835-0.143-20.537-0.888c-1.701-0.748-5.108-17.581-6.062-21.094c-0.952-3.513-3.635-5.649-8.104-5.443
			C109.005,297.358,109.259,303.76,109.678,306.296"/>
		<path fill="#21457A" d="M92.288,347.436c0,0-0.608-23.407,3.555-32.594c7.037-11.737,12.63-17.146,16.063-18.216
			c3.433-1.07,6.307,0.995,6.307,0.995s-0.84-2.09-1.79-2.98c-0.949-0.893-4.992-1.881-8.585,0.747
			c-3.595,2.627-13.119,14.084-14.929,18.458c-2.541,6.137-2.929,12.123-3.045,32.868C90.414,347.831,92.288,347.436,92.288,347.436
			"/>
		<path d="M125.482,408.881c0,0,1.329,3.396,6.008,3.24c3.081,2.755,10.98,2.846,13.747,2.743c2.766-0.104,1.804,3.194-2.133,4.253
			c-3.939,1.059-20.428,0.133-22.13,0.132C119.271,419.247,121.835,410.844,125.482,408.881"/>
		<path fill="#F7C58D" d="M131.239,279.779c0.335-1.055-1.513-3.074,0.008-6.264c1.52-3.191-2.626-5.949-2.626-5.949
			s-0.084,0.117-0.225,0.315c-1.878-3.1-4.829-5.109-8.162-5.113c-5.69-0.009-10.312,5.809-10.321,12.993
			c-0.01,7.183,4.601,12.782,10.292,12.79c0.156,0,0.302,0.21,0.457,0.201c2.253,1.475,5.352,0.146,5.738-0.882
			c0.481-1.275,0.781-2.032,1.561-2.031c0.78,0.001,0.578-0.998,0.002-1.495c0.421,0.143,1.274,0.059,1.135-0.239
			c-0.139-0.3,0.14-0.938,0.355-2.568C131.499,282.422,131.836,280.338,131.239,279.779"/>
		<path fill="#353535" d="M108.653,281.464l0.246,3.552c0,0,6.012,1.803,7.772-1.766
			C118.43,279.682,108.653,281.464,108.653,281.464"/>
		<path fill="#353535" d="M126.59,274.585c0,0,2.688-0.848,3.618,0.005c0.106,0.293-0.205,0.664-0.708,0.559
			C128.998,275.042,127.375,274.653,126.59,274.585"/>
		<path fill="#BBE0FF" d="M131.426,278.342c-0.82-0.045-5.759-0.023-7.575-0.015l0.007-0.021l-3.233-1.042l-0.196,0.608l2.811,0.905
			c0.133,1.994-1.537,4.324-2.324,5.3l-1.489-2.087l-0.52,0.37l1.636,2.294c0.14,0.534,0.982,3.124,4.593,4.755
			C129.553,287.833,132.7,280.898,131.426,278.342"/>
		<path fill="#353535" d="M125.881,272.244c0.34,0.054,5.048,0.564,6.746,2.908c1.374-1.175-0.527-3.139-0.527-3.139
			L125.881,272.244z"/>
		<path fill="#FEC400" d="M123.576,272.199c0,0,8.948,1.109,11.66,2.151c1.525-6.782-3.175-12.465-10.593-14.549
			c-7.419-2.084-15.217,1.462-17.779,8.4c-2.563,6.939-0.892,10.062,0.781,12.663c1.354,2.106,3.464,3.641,9.463,3.284
			c3.951-0.234,3.971-5.908,4.52-8.014C122.189,273.981,122.376,271.909,123.576,272.199"/>
		<path fill="#FED033" d="M124.517,259.792c-4.609-1.288-9.36-0.401-12.913,2.117c2.868-0.994,6.104-1.145,9.275-0.257
			c6.408,1.792,10.789,6.27,10.892,11.825c1.381,0.271,2.608,0.562,3.358,0.849C136.645,267.543,131.938,261.867,124.517,259.792"/>
		<path fill="#353535" d="M122.673,271.248c-1.201-0.29-1.387,1.781-1.948,3.934c-0.548,2.106-0.569,7.781-4.52,8.015
			c-4.375,0.26-6.678-0.489-8.133-1.729c1.383,1.785,3.628,3.002,9.036,2.682c3.951-0.234,3.971-5.908,4.52-8.014
			c0.561-2.154,0.748-4.225,1.948-3.936c0,0,8.948,1.109,11.66,2.15c0.094-0.419,0.165-0.833,0.211-1.242
			C132.636,272.079,122.673,271.248,122.673,271.248"/>
		<g opacity="0.49">
			<g>
				<defs>
					<rect id="SVGID_1_" x="118.626" y="269.276" width="17.438" height="21.711"/>
				</defs>
				<clipPath id="SVGID_2_">
					<use xlink:href="#SVGID_1_"  overflow="visible"/>
				</clipPath>
				<path clip-path="url(#SVGID_2_)" fill="#D2F0FF" d="M136.064,271.914c0,0,0.278,10.479-7.807,18.832
					c-2.402,1.184-10.747-1.939-9.507-10.25c0.877-5.884-0.022-10.169,1.787-11.071
					C122.349,268.522,130.745,272.066,136.064,271.914"/>
			</g>
		</g>
		<path fill="#1F2C50" d="M95.463,373.572l-23.72-0.031c-1.687-0.002-3.273-0.904-4.139-2.352l-2.896-4.842
			c-0.294-0.492-0.833-0.796-1.406-0.797l-39.342-0.053c-0.882-0.002-1.596-0.716-1.595-1.597c0.002-0.883,0.717-1.596,1.599-1.595
			l39.343,0.051c1.687,0.002,3.273,0.903,4.14,2.352l2.896,4.842c0.294,0.492,0.833,0.799,1.405,0.799l23.72,0.03
			c0.881,0.001,1.594,0.716,1.593,1.598C97.06,372.859,96.344,373.573,95.463,373.572"/>
		<path fill="#FEC400" d="M66.859,362.364l-45.28-0.061c-2.351-0.005-4.253-1.911-4.251-4.262l0.055-41.441
			c0.003-2.351,1.911-4.253,4.261-4.251l45.281,0.061c2.351,0.004,4.253,1.912,4.25,4.262l-0.055,41.441
			C71.117,360.463,69.209,362.366,66.859,362.364"/>
		<path fill="#EA9C00" d="M71.165,324.439l0.01-7.768c0.003-2.35-1.899-4.258-4.25-4.262l-45.281-0.061
			c-2.35-0.002-4.258,1.9-4.261,4.251l-0.01,7.768L71.165,324.439z"/>
		<path fill="#FFCF03" d="M72.116,322.378l0.007-5.729c0.003-2.434-1.967-4.408-4.399-4.411l-46.877-0.061
			c-2.434-0.004-4.409,1.965-4.412,4.399l-0.008,5.726L72.116,322.378z"/>
	</g>
</g>
</svg>
